<?xml version="1.0" encoding="utf-8"?>
<!-- Generator: Adobe Illustrator 23.0.0, SVG Export Plug-In . SVG Version: 6.00 Build 0)  -->
<svg version="1.1" id="Layer_1" xmlns="http://www.w3.org/2000/svg" xmlns:xlink="http://www.w3.org/1999/xlink" x="0px" y="0px"
	 viewBox="0 0 1222 1335.9" style="enable-background:new 0 0 1222 1335.9;" xml:space="preserve">
<style type="text/css">
	.st0{fill:url(#SVGID_1_);}
	.st1{opacity:7.000000e-02;fill:#E6F2FF;enable-background:new    ;}
</style>
<g transform="translate(-887.764 452.957)">
	
		<linearGradient id="SVGID_1_" gradientUnits="userSpaceOnUse" x1="-1627.0198" y1="288.0392" x2="-1627.7627" y2="289.6302" gradientTransform="matrix(976.4943 -563.7958 -583.3282 -1010.3245 1759144.375 -625413.4375)">
		<stop  offset="0" style="stop-color:#0058CB"/>
		<stop  offset="1" style="stop-color:#2276F2"/>
	</linearGradient>
	<path class="st0" d="M1456.2-429.4c194.6-48.6,284.8,54.3,396.3,247.5l157,271.9c111.6,193.2,45.4,440.3-147.9,551.9l-330.4,155.4
		c-193.2,111.6-480.6,97.8-468-188.1S865,375.1,904,76.4S1261.6-380.8,1456.2-429.4z"/>
	<path class="st1" d="M1620.5,63.8c-201.3,179.5-70.3,412.2,58.7,482.3s283.8-79.5,375-243.7c91.2-164.2,59.4-340.1-17.5-389.3
		S1821.8-115.7,1620.5,63.8z"/>
</g>
</svg>
