<svg xmlns="http://www.w3.org/2000/svg" xmlns:xlink="http://www.w3.org/1999/xlink" width="31" height="35" viewBox="0 0 31 35"><defs><path id="nv4ea" d="M170.13 98.75a34.69 34.69 0 0 1-1.5-2.67v-.01a19.42 19.42 0 0 0 2.91-2.59l.04-.04a19.5 19.5 0 0 0 1.95-2.52h.01c1 .76 2.05 1.45 3.14 2.06h.01V93a23.3 23.3 0 0 1-5.92 6.17l-.01.01-.04.03-.2.14h-.01l-.36-.56zm8.85.86v.01a28.88 28.88 0 0 1-4.85 4.34h-.01a35.1 35.1 0 0 1-2.4-2.89v-.01a26.3 26.3 0 0 0 3.58-3.02 31.8 31.8 0 0 0 3.67 1.57zm3.2-4.32h-.01l-.02.04v.01a28.7 28.7 0 0 1-1.86 2.7v.01h-.01c-1.24-.4-2.46-.9-3.63-1.48h-.01a25.4 25.4 0 0 0 1.89-2.56l.04-.06h.01c1.13.51 2.3.96 3.5 1.31h.02l.05.02zm10.03-19.7v3.75l-.01.04H164.9v-.03h-.05V75.6H191.85zm-23.6 5.88v.01a11.32 11.32 0 0 1-2.87 6.54v.02l-.01-.02-.15-.71a34.81 34.81 0 0 1-.67-5.83zm10.34 7.07a22.63 22.63 0 0 1-1.34 2.9v.02h-.01a23.8 23.8 0 0 1-3.15-2.1 19.17 19.17 0 0 0 1.28-3.06v-.02l.02.01a21.67 21.67 0 0 0 3.2 2.24zm-9.68-1.95v-.02a13.3 13.3 0 0 0 1.46-5.09h3.78a17.57 17.57 0 0 1-.5 3.18 16.96 16.96 0 0 1-5.47 8.78c-.27.23-.55.46-.83.67h-.01a34.94 34.94 0 0 1-1.36-3.74 13.4 13.4 0 0 0 2.84-3.62l.01-.02.02-.03.05-.1zm11.13-5.12v.01a23.2 23.2 0 0 1-.87 5.32h-.01a19.83 19.83 0 0 1-3.27-2.44v-.01c.2-.94.32-1.9.37-2.87zm4.55 7.7v.02a28.27 28.27 0 0 1-1.88 4.5 24.75 24.75 0 0 1-3.58-1.28v-.02a23.46 23.46 0 0 0 1.93-4.6 26.04 26.04 0 0 0 1-5.1l.09-1.2v-.02h3.77v.01a29.12 29.12 0 0 1-1.29 7.55v.02l-.01.04-.03.08zm7.21-7.7v.01a35 35 0 0 1-2.79 12.62 33.4 33.4 0 0 1-1.03 2.19l-.03.05a34.74 34.74 0 0 1-1.75 3v.02c-.02 0-.02.02-.03.03-.38.57-.77 1.14-1.17 1.68l-.06.07v.02c-.74.97-1.52 1.92-2.34 2.8l-.02.02-.02.02a35.09 35.09 0 0 1-4.38 3.99c-1.02-.78-2-1.62-2.92-2.5h-.01v-.01a31.45 31.45 0 0 0 6.82-6.79l.01-.02a31.22 31.22 0 0 0 4-7.37l.05-.14a30.99 30.99 0 0 0 1.9-9.68z"/></defs><g><g transform="translate(-163 -74)"><use fill="#ffffff" xlink:href="#nv4ea"/></g></g></svg>