<?xml version="1.0" encoding="utf-8"?>
<!-- Generator: Adobe Illustrator 23.0.0, SVG Export Plug-In . SVG Version: 6.00 Build 0)  -->
<svg version="1.1" id="Layer_1" xmlns="http://www.w3.org/2000/svg" xmlns:xlink="http://www.w3.org/1999/xlink" x="0px" y="0px"
	 viewBox="0 0 548 407" style="enable-background:new 0 0 548 407;" xml:space="preserve">
<style type="text/css">
	.st0{fill:#FFFFFF;}
	.st1{opacity:0.1;fill:#F19F1F;enable-background:new    ;}
	.st2{fill:#F19F1F;}
	.st3{fill:url(#SVGID_1_);}
	.st4{fill:#055CD1;}
</style>
<g transform="translate(-284 -3121.926)">
	<g transform="matrix(1, 0, 0, 1, 284, 3121.93)">
		<path class="st0" d="M88,24h208.7c29.8,0,54,24.2,54,54v211.1c0,29.8-24.2,54-54,54H88c-29.8,0-54-24.2-54-54V78
			C34,48.2,58.2,24,88,24z"/>
	</g>
	<circle class="st1" cx="476" cy="3306" r="79"/>
	<g transform="translate(474.551 3313.213)">
		<rect x="-19.1" y="-21" class="st2" width="34" height="7.9"/>
		<rect x="-29" y="-21" class="st2" width="5.6" height="7.9"/>
		<rect x="19.2" y="-21" class="st2" width="13.3" height="7.9"/>
	</g>
	<g transform="translate(474.551 3329.213)">
		<rect x="-19.1" y="-21" class="st2" width="34" height="16.9"/>
		<rect x="-29" y="-21" class="st2" width="5.6" height="16.9"/>
		<rect x="19.2" y="-21" class="st2" width="13.3" height="16.9"/>
	</g>
	<g transform="matrix(1, 0, 0, 1, 284, 3121.93)">
		
			<linearGradient id="SVGID_1_" gradientUnits="userSpaceOnUse" x1="-672.3354" y1="750.2696" x2="-672.3354" y2="749.2696" gradientTransform="matrix(29.64 69.92 69.92 -29.64 -32349.8086 69571.2031)">
			<stop  offset="0" style="stop-color:#0058CB"/>
			<stop  offset="1" style="stop-color:#2276F2"/>
		</linearGradient>
		<path class="st3" d="M175.9,311.6l10.1,23.9c5.4,12.7-0.5,27.4-13.3,32.8l-23.9,10.1c-12.7,5.4-27.4-0.5-32.8-13.3L106,341.2
			c-5.4-12.7,0.5-27.4,13.3-32.8l23.9-10.1C155.9,292.9,170.6,298.9,175.9,311.6z"/>
	</g>
	<g transform="matrix(1, 0, 0, 1, 284, 3121.93)">
		<path class="st0" d="M317.1,66.8h186.5c11.6,0,21,9.4,21,21v33.8c0,11.6-9.4,21-21,21H317.1c-11.6,0-21-9.4-21-21V87.8
			C296.1,76.2,305.5,66.8,317.1,66.8z"/>
	</g>
	<g transform="translate(644.551 3245.213)">
		<rect x="-19.1" y="-21" class="st2" width="34" height="7.9"/>
		<rect x="-29" y="-21" class="st2" width="5.6" height="7.9"/>
		<rect x="19.2" y="-21" class="st2" width="13.3" height="7.9"/>
	</g>
	<ellipse class="st4" cx="768.4" cy="3226.5" rx="22.7" ry="22.7"/>
	<g transform="translate(789.564 3237.872)">
		<g transform="translate(0 7.238)">
			<path class="st0" d="M-20.2-15.7c0,0.4-0.2,0.7-0.5,1v2h-1.7v-2c-0.5-0.5-0.6-1.3-0.1-1.8c0.5-0.5,1.3-0.6,1.8-0.1
				C-20.3-16.5-20.2-16.1-20.2-15.7z"/>
			<path class="st0" d="M-16.4-21H-29v11.8h14.7l0.1-11.8H-16.4z M-16.4-11.3h-10.5v-7.6h10.5V-11.3z"/>
		</g>
		<path class="st0" d="M-21.6-21c-4.1,0-7.3,3.3-7.4,7.4h2.2c0-2.9,2.4-5.2,5.3-5.1c2.8,0,5.1,2.3,5.1,5.1c0,0,0,0,2.2,0
			C-14.3-17.7-17.6-21-21.6-21z"/>
	</g>
</g>
</svg>
