<svg xmlns="http://www.w3.org/2000/svg" viewBox="0 0 110.443 95.981"><defs><style>.a{fill:#ccd8ef;}.b{fill:none;}</style></defs><g transform="translate(0 0)"><g transform="translate(0 0)"><path class="a" d="M102.2,41.3h0l24.275.043V41.3Z" transform="translate(-58.212 -23.524)"/><path class="a" d="M96.971,17.776H75.537V8.393A8.269,8.269,0,0,0,67.4,0h-22.6a8.161,8.161,0,0,0-8.135,8.393v9.426H13.988C6.284,17.776,0,23.759,0,31.032v51.52c0,7.4,6.284,13.429,13.988,13.429H96.971a13.455,13.455,0,0,0,13.472-13.429V31.032A13.229,13.229,0,0,0,96.971,17.776ZM43.988,8.393c0-.473.215-1.076.818-1.076H67.4a.988.988,0,0,1,.818,1.076v9.469H43.945V8.393Zm59.138,74.159a6.145,6.145,0,0,1-6.155,6.112H28.493v.129h-.387v-.129H13.988c-3.615,0-6.671-2.8-6.671-6.112V31.032c0-3.271,2.97-5.94,6.671-5.94H96.971a6,6,0,0,1,6.155,5.94Z"/><path class="b" d="M214.2,206.3" transform="translate(-122.007 -117.507)"/><path class="a" d="M96.2,58.3h0l30.43.043V58.3Z" transform="translate(-54.795 -33.207)"/><g transform="translate(30.258 33.787)"><path class="a" d="M123.825,113.405V139.66a1.2,1.2,0,0,1-1.205,1.205h-6.714a1.2,1.2,0,0,1-1.205-1.205V113.405a1.2,1.2,0,0,1,1.205-1.205h6.714A1.231,1.231,0,0,1,123.825,113.405Z" transform="translate(-95.59 -97.695)"/><path class="a" d="M168.225,79.705v40.8a1.232,1.232,0,0,1-1.205,1.205h-6.714a1.2,1.2,0,0,1-1.205-1.205v-40.8a1.232,1.232,0,0,1,1.205-1.205h6.714A1.2,1.2,0,0,1,168.225,79.705Z" transform="translate(-120.88 -78.5)"/><path class="a" d="M79.425,135.705v16.7a1.2,1.2,0,0,1-1.205,1.205H71.505A1.2,1.2,0,0,1,70.3,152.4v-16.7a1.2,1.2,0,0,1,1.205-1.205H78.22A1.232,1.232,0,0,1,79.425,135.705Z" transform="translate(-70.3 -110.397)"/></g></g></g></svg>