<svg xmlns="http://www.w3.org/2000/svg" viewBox="0 0 124.528 79.689"><defs><style>.a{fill:#ccd8ef;}</style></defs><g transform="translate(-7 -8)"><path class="a" d="M63.753,952.588l58.2,23.011a4.078,4.078,0,0,1,0,7.58l-4.2,1.624V999.76a6.745,6.745,0,1,1-10.829,5.347,6.83,6.83,0,0,1,2.707-5.347V987.984l-6.768,2.64v19.83c0,3.384-2.03,5.685-4.331,7.58a33.132,33.132,0,0,1-8.866,5.008c-7.174,2.91-16.784,9-27.41,9s-20.236-6.091-27.41-9a33.13,33.13,0,0,1-8.866-5.008c-2.3-1.895-4.331-4.264-4.331-7.58V990.691L2.572,983.179a4.079,4.079,0,0,1,0-7.58l58.2-23.011A4.935,4.935,0,0,1,63.753,952.588Zm-1.489,8.189L15.092,979.456l47.172,18.612,47.172-18.612ZM94.75,993.94l-31,12.25a4.493,4.493,0,0,1-2.978,0l-31-12.25v16.649c0-.542,0,.2,1.421,1.354a25.719,25.719,0,0,0,6.768,3.79c6.023,2.437,14.754,8.392,24.3,8.392s18.273-5.956,24.3-8.392a25.726,25.726,0,0,0,6.768-3.79,14.153,14.153,0,0,0,1.421-1.489Z" transform="translate(7 -944.354)"/></g></svg>