<svg xmlns="http://www.w3.org/2000/svg" viewBox="0 0 95.577 95.577"><defs><style>.a{fill:#ccd8ef;}</style></defs><g transform="translate(0 0)"><path class="a" d="M129.1,2.5Z" transform="translate(-82.538 -1.598)"/><g transform="translate(46.49 0.902)"><path class="a" d="M128.972,2.5Zm2.885.036Zm-2.885,93.738h0l-.072-.036h0l.072.036Zm2.813-.036Zm45.3-48.113Z" transform="translate(-128.9 -2.5)"/></g><path class="a" d="M137.1,2.6Zm45.228,45.589Z" transform="translate(-87.652 -1.662)"/><path class="a" d="M95.541,46.526l-.036-.83-2.38-.072H92.3l-.541-.036a42.456,42.456,0,0,1-41.477-41.8V3.426h0V2.308c0-.469-.036-.938-.036-1.407l-.036-.83-.83-.036C48.907,0,48.438,0,47.969,0L45.7.036l-.036.83c-.036.469-.036.938-.036,1.443V3.787A42.412,42.412,0,0,1,3.787,45.625H2.308c-.5,0-.974.036-1.443.036l-.83.036L0,50.349l2.525-.036H3.787a42.456,42.456,0,0,1,41.8,41.477v.541h0v.83l.072,2.38.83.036h1.479c.469,0,.938,0,1.443-.036l.83-.036.072-2.38V91.754A42.53,42.53,0,0,1,91.754,50.313h1.371l2.38-.072.036-.83c.036-.469.036-.938.036-1.443V47.5A8.788,8.788,0,0,0,95.541,46.526ZM49.484.938ZM46.562.9Zm-.036,93.774Zm2.885,0h-.036v-.036l.036.036ZM47.969,78.157A47.323,47.323,0,0,0,17.781,47.969,47.323,47.323,0,0,0,47.969,17.781,47.323,47.323,0,0,0,78.157,47.969,47.323,47.323,0,0,0,47.969,78.157ZM94.676,46.562h0l-.036-.072h0l.036.072Z"/><path class="a" d="M136.9,262.4Z" transform="translate(-87.524 -167.761)"/><path class="a" d="M128.972,262.436h0l-.072-.036h0l.072.036Z" transform="translate(-82.41 -167.761)"/><path class="a" d="M129.036,262.4Z" transform="translate(-82.474 -167.761)"/><path class="a" d="M136.936,262.4h0l-.036.036V262.4Z" transform="translate(-87.524 -167.761)"/><path class="a" d="M129.1,2.5Z" transform="translate(-82.538 -1.598)"/><path class="a" d="M137.172,2.6Z" transform="translate(-87.688 -1.662)"/><path class="a" d="M262.5,128.9v.036h0V128.9Z" transform="translate(-167.824 -82.41)"/><path class="a" d="M129.1,2.5Z" transform="translate(-82.538 -1.598)"/><path class="a" d="M129.1,177.149ZM177.177,129Z" transform="translate(-82.538 -82.474)"/><path class="a" d="M136.9,262.4Z" transform="translate(-87.524 -167.761)"/><circle class="a" cx="10.82" cy="10.82" r="10.82" transform="translate(3.787 5.951)"/><circle class="a" cx="10.82" cy="10.82" r="10.82" transform="translate(3.787 68.347)"/><circle class="a" cx="10.82" cy="10.82" r="10.82" transform="translate(69.068 68.347)"/><circle class="a" cx="10.82" cy="10.82" r="10.82" transform="translate(69.068 5.951)"/></g></svg>