<svg xmlns="http://www.w3.org/2000/svg" viewBox="0 0 743.924 451.967"><defs><style>.a{opacity:0.36;}.b{fill:#c1ddff;}</style></defs><g class="a" transform="translate(-576.2 -4926.793)"><g transform="translate(576.2 4926.793)"><circle class="b" cx="2.708" cy="2.708" r="2.708" transform="translate(175.825)"/><circle class="b" cx="2.708" cy="2.708" r="2.708" transform="translate(187.525)"/><circle class="b" cx="2.708" cy="2.708" r="2.708" transform="translate(199.333)"/><circle class="b" cx="2.708" cy="2.708" r="2.708" transform="translate(211.033)"/><circle class="b" cx="2.708" cy="2.708" r="2.708" transform="translate(222.733)"/><circle class="b" cx="2.708" cy="2.708" r="2.708" transform="translate(269.641)"/><circle class="b" cx="2.708" cy="2.708" r="2.708" transform="translate(281.341)"/><circle class="b" cx="2.708" cy="2.708" r="2.708" transform="translate(175.825 11.7)"/><circle class="b" cx="2.708" cy="2.708" r="2.708" transform="translate(187.525 11.7)"/><circle class="b" cx="2.708" cy="2.708" r="2.708" transform="translate(199.333 11.7)"/><circle class="b" cx="2.708" cy="2.708" r="2.708" transform="translate(211.033 11.7)"/><circle class="b" cx="2.708" cy="2.708" r="2.708" transform="translate(234.433 11.7)"/><circle class="b" cx="2.708" cy="2.708" r="2.708" transform="translate(246.133 11.7)"/><circle class="b" cx="2.708" cy="2.708" r="2.708" transform="translate(257.941 11.7)"/><circle class="b" cx="2.708" cy="2.708" r="2.708" transform="translate(269.641 11.7)"/><circle class="b" cx="2.708" cy="2.708" r="2.708" transform="translate(281.341 11.7)"/><circle class="b" cx="2.708" cy="2.708" r="2.708" transform="translate(293.041 11.7)"/><circle class="b" cx="2.708" cy="2.708" r="2.708" transform="translate(304.741 11.7)"/><circle class="b" cx="2.708" cy="2.708" r="2.708" transform="translate(316.55 11.7)"/><circle class="b" cx="2.708" cy="2.708" r="2.708" transform="translate(328.25 11.7)"/><circle class="b" cx="2.708" cy="2.708" r="2.708" transform="translate(363.349 11.7)"/><circle class="b" cx="2.708" cy="2.708" r="2.708" transform="translate(375.158 11.7)"/><circle class="b" cx="2.708" cy="2.708" r="2.708" transform="translate(386.858 11.7)"/><circle class="b" cx="2.708" cy="2.708" r="2.708" transform="translate(398.558 11.7)"/><circle class="b" cx="2.708" cy="2.708" r="2.708" transform="translate(410.258 11.7)"/><circle class="b" cx="2.708" cy="2.708" r="2.708" transform="translate(457.166 11.7)"/><circle class="b" cx="2.708" cy="2.708" r="2.708" transform="translate(527.474 11.7)"/><circle class="b" cx="2.708" cy="2.708" r="2.708" transform="translate(539.283 11.7)"/><circle class="b" cx="2.708" cy="2.708" r="2.708" transform="translate(140.725 23.508)"/><circle class="b" cx="2.708" cy="2.708" r="2.708" transform="translate(175.825 23.508)"/><circle class="b" cx="2.708" cy="2.708" r="2.708" transform="translate(187.525 23.508)"/><circle class="b" cx="2.708" cy="2.708" r="2.708" transform="translate(199.333 23.508)"/><circle class="b" cx="2.708" cy="2.708" r="2.708" transform="translate(222.733 23.508)"/><circle class="b" cx="2.708" cy="2.708" r="2.708" transform="translate(234.433 23.508)"/><circle class="b" cx="2.708" cy="2.708" r="2.708" transform="translate(246.133 23.508)"/><circle class="b" cx="2.708" cy="2.708" r="2.708" transform="translate(257.941 23.508)"/><circle class="b" cx="2.708" cy="2.708" r="2.708" transform="translate(269.641 23.508)"/><circle class="b" cx="2.708" cy="2.708" r="2.708" transform="translate(281.341 23.508)"/><circle class="b" cx="2.708" cy="2.708" r="2.708" transform="translate(293.041 23.508)"/><circle class="b" cx="2.708" cy="2.708" r="2.708" transform="translate(304.741 23.508)"/><circle class="b" cx="2.708" cy="2.708" r="2.708" transform="translate(375.158 23.508)"/><circle class="b" cx="2.708" cy="2.708" r="2.708" transform="translate(386.858 23.508)"/><circle class="b" cx="2.708" cy="2.708" r="2.708" transform="translate(105.517 35.208)"/><circle class="b" cx="2.708" cy="2.708" r="2.708" transform="translate(117.216 35.208)"/><circle class="b" cx="2.708" cy="2.708" r="2.708" transform="translate(128.916 35.208)"/><circle class="b" cx="2.708" cy="2.708" r="2.708" transform="translate(140.725 35.208)"/><circle class="b" cx="2.708" cy="2.708" r="2.708" transform="translate(152.425 35.208)"/><circle class="b" cx="2.708" cy="2.708" r="2.708" transform="translate(175.825 35.208)"/><circle class="b" cx="2.708" cy="2.708" r="2.708" transform="translate(187.525 35.208)"/><circle class="b" cx="2.708" cy="2.708" r="2.708" transform="translate(234.433 35.208)"/><circle class="b" cx="2.708" cy="2.708" r="2.708" transform="translate(246.133 35.208)"/><circle class="b" cx="2.708" cy="2.708" r="2.708" transform="translate(257.941 35.208)"/><circle class="b" cx="2.708" cy="2.708" r="2.708" transform="translate(269.641 35.208)"/><circle class="b" cx="2.708" cy="2.708" r="2.708" transform="translate(281.341 35.208)"/><circle class="b" cx="2.708" cy="2.708" r="2.708" transform="translate(293.041 35.208)"/><circle class="b" cx="2.708" cy="2.708" r="2.708" transform="translate(304.741 35.208)"/><circle class="b" cx="2.708" cy="2.708" r="2.708" transform="translate(457.166 35.208)"/><circle class="b" cx="2.708" cy="2.708" r="2.708" transform="translate(468.866 35.208)"/><circle class="b" cx="2.708" cy="2.708" r="2.708" transform="translate(480.674 35.208)"/><circle class="b" cx="2.708" cy="2.708" r="2.708" transform="translate(492.374 35.208)"/><circle class="b" cx="2.708" cy="2.708" r="2.708" transform="translate(504.074 35.208)"/><circle class="b" cx="2.708" cy="2.708" r="2.708" transform="translate(515.774 35.208)"/><circle class="b" cx="2.708" cy="2.708" r="2.708" transform="translate(527.474 35.208)"/><circle class="b" cx="2.708" cy="2.708" r="2.708" transform="translate(539.283 35.208)"/><circle class="b" cx="2.708" cy="2.708" r="2.708" transform="translate(550.982 35.208)"/><circle class="b" cx="2.708" cy="2.708" r="2.708" transform="translate(562.683 35.208)"/><circle class="b" cx="2.708" cy="2.708" r="2.708" transform="translate(609.591 35.208)"/><circle class="b" cx="2.708" cy="2.708" r="2.708" transform="translate(621.291 35.208)"/><circle class="b" cx="2.708" cy="2.708" r="2.708" transform="translate(105.517 47.017)"/><circle class="b" cx="2.708" cy="2.708" r="2.708" transform="translate(117.216 47.017)"/><circle class="b" cx="2.708" cy="2.708" r="2.708" transform="translate(128.916 47.017)"/><circle class="b" cx="2.708" cy="2.708" r="2.708" transform="translate(140.725 47.017)"/><circle class="b" cx="2.708" cy="2.708" r="2.708" transform="translate(152.425 47.017)"/><circle class="b" cx="2.708" cy="2.708" r="2.708" transform="translate(175.825 47.017)"/><circle class="b" cx="2.708" cy="2.708" r="2.708" transform="translate(187.525 47.017)"/><circle class="b" cx="2.708" cy="2.708" r="2.708" transform="translate(199.333 47.017)"/><circle class="b" cx="2.708" cy="2.708" r="2.708" transform="translate(234.433 47.017)"/><circle class="b" cx="2.708" cy="2.708" r="2.708" transform="translate(246.133 47.017)"/><circle class="b" cx="2.708" cy="2.708" r="2.708" transform="translate(257.941 47.017)"/><circle class="b" cx="2.708" cy="2.708" r="2.708" transform="translate(269.641 47.017)"/><circle class="b" cx="2.708" cy="2.708" r="2.708" transform="translate(281.341 47.017)"/><circle class="b" cx="2.708" cy="2.708" r="2.708" transform="translate(304.741 47.017)"/><circle class="b" cx="2.708" cy="2.708" r="2.708" transform="translate(457.166 47.017)"/><circle class="b" cx="2.708" cy="2.708" r="2.708" transform="translate(468.866 47.017)"/><circle class="b" cx="2.708" cy="2.708" r="2.708" transform="translate(480.674 47.017)"/><circle class="b" cx="2.708" cy="2.708" r="2.708" transform="translate(492.374 47.017)"/><circle class="b" cx="2.708" cy="2.708" r="2.708" transform="translate(504.074 47.017)"/><circle class="b" cx="2.708" cy="2.708" r="2.708" transform="translate(515.774 47.017)"/><circle class="b" cx="2.708" cy="2.708" r="2.708" transform="translate(527.474 47.017)"/><circle class="b" cx="2.708" cy="2.708" r="2.708" transform="translate(539.283 47.017)"/><circle class="b" cx="2.708" cy="2.708" r="2.708" transform="translate(550.982 47.017)"/><circle class="b" cx="2.708" cy="2.708" r="2.708" transform="translate(562.683 47.017)"/><circle class="b" cx="2.708" cy="2.708" r="2.708" transform="translate(574.383 47.017)"/><circle class="b" cx="2.708" cy="2.708" r="2.708" transform="translate(586.083 47.017)"/><circle class="b" cx="2.708" cy="2.708" r="2.708" transform="translate(597.891 47.017)"/><circle class="b" cx="2.708" cy="2.708" r="2.708" transform="translate(609.591 47.017)"/><circle class="b" cx="2.708" cy="2.708" r="2.708" transform="translate(621.291 47.017)"/><circle class="b" cx="2.708" cy="2.708" r="2.708" transform="translate(632.991 47.017)"/><circle class="b" cx="2.708" cy="2.708" r="2.708" transform="translate(644.691 47.017)"/><circle class="b" cx="2.708" cy="2.708" r="2.708" transform="translate(23.4 58.717)"/><circle class="b" cx="2.708" cy="2.708" r="2.708" transform="translate(35.208 58.717)"/><circle class="b" cx="2.708" cy="2.708" r="2.708" transform="translate(46.908 58.717)"/><circle class="b" cx="2.708" cy="2.708" r="2.708" transform="translate(58.608 58.717)"/><circle class="b" cx="2.708" cy="2.708" r="2.708" transform="translate(70.308 58.717)"/><circle class="b" cx="2.708" cy="2.708" r="2.708" transform="translate(82.008 58.717)"/><circle class="b" cx="2.708" cy="2.708" r="2.708" transform="translate(93.817 58.717)"/><circle class="b" cx="2.708" cy="2.708" r="2.708" transform="translate(128.916 58.717)"/><circle class="b" cx="2.708" cy="2.708" r="2.708" transform="translate(140.725 58.717)"/><circle class="b" cx="2.708" cy="2.708" r="2.708" transform="translate(164.125 58.717)"/><circle class="b" cx="2.708" cy="2.708" r="2.708" transform="translate(175.825 58.717)"/><circle class="b" cx="2.708" cy="2.708" r="2.708" transform="translate(199.333 58.717)"/><circle class="b" cx="2.708" cy="2.708" r="2.708" transform="translate(211.033 58.717)"/><circle class="b" cx="2.708" cy="2.708" r="2.708" transform="translate(246.133 58.717)"/><circle class="b" cx="2.708" cy="2.708" r="2.708" transform="translate(257.941 58.717)"/><circle class="b" cx="2.708" cy="2.708" r="2.708" transform="translate(269.641 58.717)"/><circle class="b" cx="2.708" cy="2.708" r="2.708" transform="translate(281.341 58.717)"/><circle class="b" cx="2.708" cy="2.708" r="2.708" transform="translate(293.041 58.717)"/><circle class="b" cx="2.708" cy="2.708" r="2.708" transform="translate(386.858 58.717)"/><circle class="b" cx="2.708" cy="2.708" r="2.708" transform="translate(398.558 58.717)"/><circle class="b" cx="2.708" cy="2.708" r="2.708" transform="translate(410.258 58.717)"/><circle class="b" cx="2.708" cy="2.708" r="2.708" transform="translate(422.066 58.717)"/><circle class="b" cx="2.708" cy="2.708" r="2.708" transform="translate(433.766 58.717)"/><circle class="b" cx="2.708" cy="2.708" r="2.708" transform="translate(445.466 58.717)"/><circle class="b" cx="2.708" cy="2.708" r="2.708" transform="translate(457.166 58.717)"/><circle class="b" cx="2.708" cy="2.708" r="2.708" transform="translate(468.866 58.717)"/><circle class="b" cx="2.708" cy="2.708" r="2.708" transform="translate(480.674 58.717)"/><circle class="b" cx="2.708" cy="2.708" r="2.708" transform="translate(492.374 58.717)"/><circle class="b" cx="2.708" cy="2.708" r="2.708" transform="translate(504.074 58.717)"/><circle class="b" cx="2.708" cy="2.708" r="2.708" transform="translate(515.774 58.717)"/><circle class="b" cx="2.708" cy="2.708" r="2.708" transform="translate(527.474 58.717)"/><circle class="b" cx="2.708" cy="2.708" r="2.708" transform="translate(539.283 58.717)"/><circle class="b" cx="2.708" cy="2.708" r="2.708" transform="translate(550.982 58.717)"/><circle class="b" cx="2.708" cy="2.708" r="2.708" transform="translate(562.683 58.717)"/><circle class="b" cx="2.708" cy="2.708" r="2.708" transform="translate(574.383 58.717)"/><circle class="b" cx="2.708" cy="2.708" r="2.708" transform="translate(586.083 58.717)"/><circle class="b" cx="2.708" cy="2.708" r="2.708" transform="translate(597.891 58.717)"/><circle class="b" cx="2.708" cy="2.708" r="2.708" transform="translate(609.591 58.717)"/><circle class="b" cx="2.708" cy="2.708" r="2.708" transform="translate(621.291 58.717)"/><circle class="b" cx="2.708" cy="2.708" r="2.708" transform="translate(632.991 58.717)"/><circle class="b" cx="2.708" cy="2.708" r="2.708" transform="translate(644.691 58.717)"/><circle class="b" cx="2.708" cy="2.708" r="2.708" transform="translate(656.499 58.717)"/><circle class="b" cx="2.708" cy="2.708" r="2.708" transform="translate(668.199 58.717)"/><circle class="b" cx="2.708" cy="2.708" r="2.708" transform="translate(679.899 58.717)"/><circle class="b" cx="2.708" cy="2.708" r="2.708" transform="translate(691.599 58.717)"/><circle class="b" cx="2.708" cy="2.708" r="2.708" transform="translate(703.407 58.717)"/><circle class="b" cx="2.708" cy="2.708" r="2.708" transform="translate(11.7 70.525)"/><circle class="b" cx="2.708" cy="2.708" r="2.708" transform="translate(23.4 70.525)"/><circle class="b" cx="2.708" cy="2.708" r="2.708" transform="translate(35.208 70.525)"/><circle class="b" cx="2.708" cy="2.708" r="2.708" transform="translate(46.908 70.525)"/><circle class="b" cx="2.708" cy="2.708" r="2.708" transform="translate(58.608 70.525)"/><circle class="b" cx="2.708" cy="2.708" r="2.708" transform="translate(70.308 70.525)"/><circle class="b" cx="2.708" cy="2.708" r="2.708" transform="translate(82.008 70.525)"/><circle class="b" cx="2.708" cy="2.708" r="2.708" transform="translate(93.817 70.525)"/><circle class="b" cx="2.708" cy="2.708" r="2.708" transform="translate(105.517 70.525)"/><circle class="b" cx="2.708" cy="2.708" r="2.708" transform="translate(117.216 70.525)"/><circle class="b" cx="2.708" cy="2.708" r="2.708" transform="translate(128.916 70.525)"/><circle class="b" cx="2.708" cy="2.708" r="2.708" transform="translate(140.725 70.525)"/><circle class="b" cx="2.708" cy="2.708" r="2.708" transform="translate(152.425 70.525)"/><circle class="b" cx="2.708" cy="2.708" r="2.708" transform="translate(164.125 70.525)"/><circle class="b" cx="2.708" cy="2.708" r="2.708" transform="translate(175.825 70.525)"/><circle class="b" cx="2.708" cy="2.708" r="2.708" transform="translate(199.333 70.525)"/><circle class="b" cx="2.708" cy="2.708" r="2.708" transform="translate(211.033 70.525)"/><circle class="b" cx="2.708" cy="2.708" r="2.708" transform="translate(222.733 70.525)"/><circle class="b" cx="2.708" cy="2.708" r="2.708" transform="translate(246.133 70.525)"/><circle class="b" cx="2.708" cy="2.708" r="2.708" transform="translate(257.941 70.525)"/><circle class="b" cx="2.708" cy="2.708" r="2.708" transform="translate(269.641 70.525)"/><circle class="b" cx="2.708" cy="2.708" r="2.708" transform="translate(304.741 70.525)"/><circle class="b" cx="2.708" cy="2.708" r="2.708" transform="translate(316.55 70.525)"/><circle class="b" cx="2.708" cy="2.708" r="2.708" transform="translate(375.158 70.525)"/><circle class="b" cx="2.708" cy="2.708" r="2.708" transform="translate(386.858 70.525)"/><circle class="b" cx="2.708" cy="2.708" r="2.708" transform="translate(398.558 70.525)"/><circle class="b" cx="2.708" cy="2.708" r="2.708" transform="translate(410.258 70.525)"/><circle class="b" cx="2.708" cy="2.708" r="2.708" transform="translate(433.766 70.525)"/><circle class="b" cx="2.708" cy="2.708" r="2.708" transform="translate(445.466 70.525)"/><circle class="b" cx="2.708" cy="2.708" r="2.708" transform="translate(457.166 70.525)"/><circle class="b" cx="2.708" cy="2.708" r="2.708" transform="translate(468.866 70.525)"/><circle class="b" cx="2.708" cy="2.708" r="2.708" transform="translate(480.674 70.525)"/><circle class="b" cx="2.708" cy="2.708" r="2.708" transform="translate(492.374 70.525)"/><circle class="b" cx="2.708" cy="2.708" r="2.708" transform="translate(504.074 70.525)"/><circle class="b" cx="2.708" cy="2.708" r="2.708" transform="translate(515.774 70.525)"/><circle class="b" cx="2.708" cy="2.708" r="2.708" transform="translate(527.474 70.525)"/><circle class="b" cx="2.708" cy="2.708" r="2.708" transform="translate(539.283 70.525)"/><circle class="b" cx="2.708" cy="2.708" r="2.708" transform="translate(550.982 70.525)"/><circle class="b" cx="2.708" cy="2.708" r="2.708" transform="translate(562.683 70.525)"/><circle class="b" cx="2.708" cy="2.708" r="2.708" transform="translate(574.383 70.525)"/><circle class="b" cx="2.708" cy="2.708" r="2.708" transform="translate(586.083 70.525)"/><circle class="b" cx="2.708" cy="2.708" r="2.708" transform="translate(597.891 70.525)"/><circle class="b" cx="2.708" cy="2.708" r="2.708" transform="translate(609.591 70.525)"/><circle class="b" cx="2.708" cy="2.708" r="2.708" transform="translate(621.291 70.525)"/><circle class="b" cx="2.708" cy="2.708" r="2.708" transform="translate(632.991 70.525)"/><circle class="b" cx="2.708" cy="2.708" r="2.708" transform="translate(644.691 70.525)"/><circle class="b" cx="2.708" cy="2.708" r="2.708" transform="translate(656.499 70.525)"/><circle class="b" cx="2.708" cy="2.708" r="2.708" transform="translate(668.199 70.525)"/><circle class="b" cx="2.708" cy="2.708" r="2.708" transform="translate(679.899 70.525)"/><circle class="b" cx="2.708" cy="2.708" r="2.708" transform="translate(691.599 70.525)"/><circle class="b" cx="2.708" cy="2.708" r="2.708" transform="translate(703.407 70.525)"/><circle class="b" cx="2.708" cy="2.708" r="2.708" transform="translate(715.107 70.525)"/><circle class="b" cx="2.708" cy="2.708" r="2.708" transform="translate(726.807 70.525)"/><circle class="b" cx="2.708" cy="2.708" r="2.708" transform="translate(23.4 82.225)"/><circle class="b" cx="2.708" cy="2.708" r="2.708" transform="translate(35.208 82.225)"/><circle class="b" cx="2.708" cy="2.708" r="2.708" transform="translate(46.908 82.225)"/><circle class="b" cx="2.708" cy="2.708" r="2.708" transform="translate(58.608 82.225)"/><circle class="b" cx="2.708" cy="2.708" r="2.708" transform="translate(70.308 82.225)"/><circle class="b" cx="2.708" cy="2.708" r="2.708" transform="translate(82.008 82.225)"/><circle class="b" cx="2.708" cy="2.708" r="2.708" transform="translate(93.817 82.225)"/><circle class="b" cx="2.708" cy="2.708" r="2.708" transform="translate(105.517 82.225)"/><circle class="b" cx="2.708" cy="2.708" r="2.708" transform="translate(117.216 82.225)"/><circle class="b" cx="2.708" cy="2.708" r="2.708" transform="translate(128.916 82.225)"/><circle class="b" cx="2.708" cy="2.708" r="2.708" transform="translate(140.725 82.225)"/><circle class="b" cx="2.708" cy="2.708" r="2.708" transform="translate(152.425 82.225)"/><circle class="b" cx="2.708" cy="2.708" r="2.708" transform="translate(164.125 82.225)"/><circle class="b" cx="2.708" cy="2.708" r="2.708" transform="translate(175.825 82.225)"/><circle class="b" cx="2.708" cy="2.708" r="2.708" transform="translate(187.525 82.225)"/><circle class="b" cx="2.708" cy="2.708" r="2.708" transform="translate(199.333 82.225)"/><circle class="b" cx="2.708" cy="2.708" r="2.708" transform="translate(211.033 82.225)"/><circle class="b" cx="2.708" cy="2.708" r="2.708" transform="translate(222.733 82.225)"/><circle class="b" cx="2.708" cy="2.708" r="2.708" transform="translate(246.133 82.225)"/><circle class="b" cx="2.708" cy="2.708" r="2.708" transform="translate(257.941 82.225)"/><circle class="b" cx="2.708" cy="2.708" r="2.708" transform="translate(316.55 82.225)"/><circle class="b" cx="2.708" cy="2.708" r="2.708" transform="translate(363.349 82.225)"/><circle class="b" cx="2.708" cy="2.708" r="2.708" transform="translate(375.158 82.225)"/><circle class="b" cx="2.708" cy="2.708" r="2.708" transform="translate(386.858 82.225)"/><circle class="b" cx="2.708" cy="2.708" r="2.708" transform="translate(398.558 82.225)"/><circle class="b" cx="2.708" cy="2.708" r="2.708" transform="translate(410.258 82.225)"/><circle class="b" cx="2.708" cy="2.708" r="2.708" transform="translate(422.066 82.225)"/><circle class="b" cx="2.708" cy="2.708" r="2.708" transform="translate(433.766 82.225)"/><circle class="b" cx="2.708" cy="2.708" r="2.708" transform="translate(445.466 82.225)"/><circle class="b" cx="2.708" cy="2.708" r="2.708" transform="translate(457.166 82.225)"/><circle class="b" cx="2.708" cy="2.708" r="2.708" transform="translate(468.866 82.225)"/><circle class="b" cx="2.708" cy="2.708" r="2.708" transform="translate(480.674 82.225)"/><circle class="b" cx="2.708" cy="2.708" r="2.708" transform="translate(492.374 82.225)"/><circle class="b" cx="2.708" cy="2.708" r="2.708" transform="translate(504.074 82.225)"/><circle class="b" cx="2.708" cy="2.708" r="2.708" transform="translate(515.774 82.225)"/><circle class="b" cx="2.708" cy="2.708" r="2.708" transform="translate(527.474 82.225)"/><circle class="b" cx="2.708" cy="2.708" r="2.708" transform="translate(539.283 82.225)"/><circle class="b" cx="2.708" cy="2.708" r="2.708" transform="translate(550.982 82.225)"/><circle class="b" cx="2.708" cy="2.708" r="2.708" transform="translate(562.683 82.225)"/><circle class="b" cx="2.708" cy="2.708" r="2.708" transform="translate(574.383 82.225)"/><circle class="b" cx="2.708" cy="2.708" r="2.708" transform="translate(586.083 82.225)"/><circle class="b" cx="2.708" cy="2.708" r="2.708" transform="translate(597.891 82.225)"/><circle class="b" cx="2.708" cy="2.708" r="2.708" transform="translate(609.591 82.225)"/><circle class="b" cx="2.708" cy="2.708" r="2.708" transform="translate(621.291 82.225)"/><circle class="b" cx="2.708" cy="2.708" r="2.708" transform="translate(632.991 82.225)"/><circle class="b" cx="2.708" cy="2.708" r="2.708" transform="translate(644.691 82.225)"/><circle class="b" cx="2.708" cy="2.708" r="2.708" transform="translate(656.499 82.225)"/><circle class="b" cx="2.708" cy="2.708" r="2.708" transform="translate(668.199 82.225)"/><circle class="b" cx="2.708" cy="2.708" r="2.708" transform="translate(679.899 82.225)"/><circle class="b" cx="2.708" cy="2.708" r="2.708" transform="translate(691.599 82.225)"/><circle class="b" cx="2.708" cy="2.708" r="2.708" transform="translate(703.407 82.225)"/><circle class="b" cx="2.708" cy="2.708" r="2.708" transform="translate(715.107 82.225)"/><circle class="b" cx="2.708" cy="2.708" r="2.708" transform="translate(11.7 94.033)"/><circle class="b" cx="2.708" cy="2.708" r="2.708" transform="translate(23.4 94.033)"/><circle class="b" cx="2.708" cy="2.708" r="2.708" transform="translate(35.208 94.033)"/><circle class="b" cx="2.708" cy="2.708" r="2.708" transform="translate(46.908 94.033)"/><circle class="b" cx="2.708" cy="2.708" r="2.708" transform="translate(58.608 94.033)"/><circle class="b" cx="2.708" cy="2.708" r="2.708" transform="translate(70.308 94.033)"/><circle class="b" cx="2.708" cy="2.708" r="2.708" transform="translate(82.008 94.033)"/><circle class="b" cx="2.708" cy="2.708" r="2.708" transform="translate(93.817 94.033)"/><circle class="b" cx="2.708" cy="2.708" r="2.708" transform="translate(105.517 94.033)"/><circle class="b" cx="2.708" cy="2.708" r="2.708" transform="translate(117.216 94.033)"/><circle class="b" cx="2.708" cy="2.708" r="2.708" transform="translate(128.916 94.033)"/><circle class="b" cx="2.708" cy="2.708" r="2.708" transform="translate(140.725 94.033)"/><circle class="b" cx="2.708" cy="2.708" r="2.708" transform="translate(152.425 94.033)"/><circle class="b" cx="2.708" cy="2.708" r="2.708" transform="translate(187.525 94.033)"/><circle class="b" cx="2.708" cy="2.708" r="2.708" transform="translate(199.333 94.033)"/><circle class="b" cx="2.708" cy="2.708" r="2.708" transform="translate(211.033 94.033)"/><circle class="b" cx="2.708" cy="2.708" r="2.708" transform="translate(222.733 94.033)"/><circle class="b" cx="2.708" cy="2.708" r="2.708" transform="translate(246.133 94.033)"/><circle class="b" cx="2.708" cy="2.708" r="2.708" transform="translate(257.941 94.033)"/><circle class="b" cx="2.708" cy="2.708" r="2.708" transform="translate(339.95 94.033)"/><circle class="b" cx="2.708" cy="2.708" r="2.708" transform="translate(363.349 94.033)"/><circle class="b" cx="2.708" cy="2.708" r="2.708" transform="translate(375.158 94.033)"/><circle class="b" cx="2.708" cy="2.708" r="2.708" transform="translate(398.558 94.033)"/><circle class="b" cx="2.708" cy="2.708" r="2.708" transform="translate(410.258 94.033)"/><circle class="b" cx="2.708" cy="2.708" r="2.708" transform="translate(422.066 94.033)"/><circle class="b" cx="2.708" cy="2.708" r="2.708" transform="translate(433.766 94.033)"/><circle class="b" cx="2.708" cy="2.708" r="2.708" transform="translate(445.466 94.033)"/><circle class="b" cx="2.708" cy="2.708" r="2.708" transform="translate(457.166 94.033)"/><circle class="b" cx="2.708" cy="2.708" r="2.708" transform="translate(468.866 94.033)"/><circle class="b" cx="2.708" cy="2.708" r="2.708" transform="translate(480.674 94.033)"/><circle class="b" cx="2.708" cy="2.708" r="2.708" transform="translate(492.374 94.033)"/><circle class="b" cx="2.708" cy="2.708" r="2.708" transform="translate(504.074 94.033)"/><circle class="b" cx="2.708" cy="2.708" r="2.708" transform="translate(515.774 94.033)"/><circle class="b" cx="2.708" cy="2.708" r="2.708" transform="translate(527.474 94.033)"/><circle class="b" cx="2.708" cy="2.708" r="2.708" transform="translate(539.283 94.033)"/><circle class="b" cx="2.708" cy="2.708" r="2.708" transform="translate(550.982 94.033)"/><circle class="b" cx="2.708" cy="2.708" r="2.708" transform="translate(562.683 94.033)"/><circle class="b" cx="2.708" cy="2.708" r="2.708" transform="translate(574.383 94.033)"/><circle class="b" cx="2.708" cy="2.708" r="2.708" transform="translate(586.083 94.033)"/><circle class="b" cx="2.708" cy="2.708" r="2.708" transform="translate(597.891 94.033)"/><circle class="b" cx="2.708" cy="2.708" r="2.708" transform="translate(609.591 94.033)"/><circle class="b" cx="2.708" cy="2.708" r="2.708" transform="translate(621.291 94.033)"/><circle class="b" cx="2.708" cy="2.708" r="2.708" transform="translate(632.991 94.033)"/><circle class="b" cx="2.708" cy="2.708" r="2.708" transform="translate(644.691 94.033)"/><circle class="b" cx="2.708" cy="2.708" r="2.708" transform="translate(656.499 94.033)"/><circle class="b" cx="2.708" cy="2.708" r="2.708" transform="translate(668.199 94.033)"/><circle class="b" cx="2.708" cy="2.708" r="2.708" transform="translate(679.899 94.033)"/><circle class="b" cx="2.708" cy="2.708" r="2.708" transform="translate(691.599 94.033)"/><circle class="b" cx="2.708" cy="2.708" r="2.708" transform="translate(703.407 94.033)"/><circle class="b" cx="2.708" cy="2.708" r="2.708" transform="translate(11.7 105.733)"/><circle class="b" cx="2.708" cy="2.708" r="2.708" transform="translate(23.4 105.733)"/><circle class="b" cx="2.708" cy="2.708" r="2.708" transform="translate(35.208 105.733)"/><circle class="b" cx="2.708" cy="2.708" r="2.708" transform="translate(46.908 105.733)"/><circle class="b" cx="2.708" cy="2.708" r="2.708" transform="translate(70.308 105.733)"/><circle class="b" cx="2.708" cy="2.708" r="2.708" transform="translate(82.008 105.733)"/><circle class="b" cx="2.708" cy="2.708" r="2.708" transform="translate(93.817 105.733)"/><circle class="b" cx="2.708" cy="2.708" r="2.708" transform="translate(105.517 105.733)"/><circle class="b" cx="2.708" cy="2.708" r="2.708" transform="translate(117.216 105.733)"/><circle class="b" cx="2.708" cy="2.708" r="2.708" transform="translate(128.916 105.733)"/><circle class="b" cx="2.708" cy="2.708" r="2.708" transform="translate(140.725 105.733)"/><circle class="b" cx="2.708" cy="2.708" r="2.708" transform="translate(152.425 105.733)"/><circle class="b" cx="2.708" cy="2.708" r="2.708" transform="translate(187.525 105.733)"/><circle class="b" cx="2.708" cy="2.708" r="2.708" transform="translate(199.333 105.733)"/><circle class="b" cx="2.708" cy="2.708" r="2.708" transform="translate(211.033 105.733)"/><circle class="b" cx="2.708" cy="2.708" r="2.708" transform="translate(222.733 105.733)"/><circle class="b" cx="2.708" cy="2.708" r="2.708" transform="translate(339.95 105.733)"/><circle class="b" cx="2.708" cy="2.708" r="2.708" transform="translate(363.349 105.733)"/><circle class="b" cx="2.708" cy="2.708" r="2.708" transform="translate(375.158 105.733)"/><circle class="b" cx="2.708" cy="2.708" r="2.708" transform="translate(398.558 105.733)"/><circle class="b" cx="2.708" cy="2.708" r="2.708" transform="translate(410.258 105.733)"/><circle class="b" cx="2.708" cy="2.708" r="2.708" transform="translate(422.066 105.733)"/><circle class="b" cx="2.708" cy="2.708" r="2.708" transform="translate(433.766 105.733)"/><circle class="b" cx="2.708" cy="2.708" r="2.708" transform="translate(445.466 105.733)"/><circle class="b" cx="2.708" cy="2.708" r="2.708" transform="translate(457.166 105.733)"/><circle class="b" cx="2.708" cy="2.708" r="2.708" transform="translate(468.866 105.733)"/><circle class="b" cx="2.708" cy="2.708" r="2.708" transform="translate(480.674 105.733)"/><circle class="b" cx="2.708" cy="2.708" r="2.708" transform="translate(492.374 105.733)"/><circle class="b" cx="2.708" cy="2.708" r="2.708" transform="translate(504.074 105.733)"/><circle class="b" cx="2.708" cy="2.708" r="2.708" transform="translate(515.774 105.733)"/><circle class="b" cx="2.708" cy="2.708" r="2.708" transform="translate(527.474 105.733)"/><circle class="b" cx="2.708" cy="2.708" r="2.708" transform="translate(539.283 105.733)"/><circle class="b" cx="2.708" cy="2.708" r="2.708" transform="translate(550.982 105.733)"/><circle class="b" cx="2.708" cy="2.708" r="2.708" transform="translate(562.683 105.733)"/><circle class="b" cx="2.708" cy="2.708" r="2.708" transform="translate(574.383 105.733)"/><circle class="b" cx="2.708" cy="2.708" r="2.708" transform="translate(586.083 105.733)"/><circle class="b" cx="2.708" cy="2.708" r="2.708" transform="translate(597.891 105.733)"/><circle class="b" cx="2.708" cy="2.708" r="2.708" transform="translate(609.591 105.733)"/><circle class="b" cx="2.708" cy="2.708" r="2.708" transform="translate(621.291 105.733)"/><circle class="b" cx="2.708" cy="2.708" r="2.708" transform="translate(632.991 105.733)"/><circle class="b" cx="2.708" cy="2.708" r="2.708" transform="translate(679.899 105.733)"/><circle class="b" cx="2.708" cy="2.708" r="2.708" transform="translate(23.4 117.541)"/><circle class="b" cx="2.708" cy="2.708" r="2.708" transform="translate(35.208 117.541)"/><circle class="b" cx="2.708" cy="2.708" r="2.708" transform="translate(82.008 117.541)"/><circle class="b" cx="2.708" cy="2.708" r="2.708" transform="translate(93.817 117.541)"/><circle class="b" cx="2.708" cy="2.708" r="2.708" transform="translate(105.517 117.541)"/><circle class="b" cx="2.708" cy="2.708" r="2.708" transform="translate(117.216 117.541)"/><circle class="b" cx="2.708" cy="2.708" r="2.708" transform="translate(128.916 117.541)"/><circle class="b" cx="2.708" cy="2.708" r="2.708" transform="translate(140.725 117.541)"/><circle class="b" cx="2.708" cy="2.708" r="2.708" transform="translate(152.425 117.541)"/><circle class="b" cx="2.708" cy="2.708" r="2.708" transform="translate(164.125 117.541)"/><circle class="b" cx="2.708" cy="2.708" r="2.708" transform="translate(187.525 117.541)"/><circle class="b" cx="2.708" cy="2.708" r="2.708" transform="translate(199.333 117.541)"/><circle class="b" cx="2.708" cy="2.708" r="2.708" transform="translate(211.033 117.541)"/><circle class="b" cx="2.708" cy="2.708" r="2.708" transform="translate(222.733 117.541)"/><circle class="b" cx="2.708" cy="2.708" r="2.708" transform="translate(328.25 117.541)"/><circle class="b" cx="2.708" cy="2.708" r="2.708" transform="translate(339.95 117.541)"/><circle class="b" cx="2.708" cy="2.708" r="2.708" transform="translate(363.349 117.541)"/><circle class="b" cx="2.708" cy="2.708" r="2.708" transform="translate(375.158 117.541)"/><circle class="b" cx="2.708" cy="2.708" r="2.708" transform="translate(386.858 117.541)"/><circle class="b" cx="2.708" cy="2.708" r="2.708" transform="translate(398.558 117.541)"/><circle class="b" cx="2.708" cy="2.708" r="2.708" transform="translate(410.258 117.541)"/><circle class="b" cx="2.708" cy="2.708" r="2.708" transform="translate(422.066 117.541)"/><circle class="b" cx="2.708" cy="2.708" r="2.708" transform="translate(433.766 117.541)"/><circle class="b" cx="2.708" cy="2.708" r="2.708" transform="translate(445.466 117.541)"/><circle class="b" cx="2.708" cy="2.708" r="2.708" transform="translate(457.166 117.541)"/><circle class="b" cx="2.708" cy="2.708" r="2.708" transform="translate(468.866 117.541)"/><circle class="b" cx="2.708" cy="2.708" r="2.708" transform="translate(480.674 117.541)"/><circle class="b" cx="2.708" cy="2.708" r="2.708" transform="translate(492.374 117.541)"/><circle class="b" cx="2.708" cy="2.708" r="2.708" transform="translate(504.074 117.541)"/><circle class="b" cx="2.708" cy="2.708" r="2.708" transform="translate(515.774 117.541)"/><circle class="b" cx="2.708" cy="2.708" r="2.708" transform="translate(527.474 117.541)"/><circle class="b" cx="2.708" cy="2.708" r="2.708" transform="translate(539.283 117.541)"/><circle class="b" cx="2.708" cy="2.708" r="2.708" transform="translate(550.982 117.541)"/><circle class="b" cx="2.708" cy="2.708" r="2.708" transform="translate(562.683 117.541)"/><circle class="b" cx="2.708" cy="2.708" r="2.708" transform="translate(574.383 117.541)"/><circle class="b" cx="2.708" cy="2.708" r="2.708" transform="translate(586.083 117.541)"/><circle class="b" cx="2.708" cy="2.708" r="2.708" transform="translate(597.891 117.541)"/><circle class="b" cx="2.708" cy="2.708" r="2.708" transform="translate(609.591 117.541)"/><circle class="b" cx="2.708" cy="2.708" r="2.708" transform="translate(621.291 117.541)"/><circle class="b" cx="2.708" cy="2.708" r="2.708" transform="translate(632.991 117.541)"/><circle class="b" cx="2.708" cy="2.708" r="2.708" transform="translate(644.691 117.541)"/><circle class="b" cx="2.708" cy="2.708" r="2.708" transform="translate(679.899 117.541)"/><circle class="b" cx="2.708" cy="2.708" r="2.708" transform="translate(0 129.241)"/><circle class="b" cx="2.708" cy="2.708" r="2.708" transform="translate(11.7 129.241)"/><circle class="b" cx="2.708" cy="2.708" r="2.708" transform="translate(82.008 129.241)"/><circle class="b" cx="2.708" cy="2.708" r="2.708" transform="translate(93.817 129.241)"/><circle class="b" cx="2.708" cy="2.708" r="2.708" transform="translate(105.517 129.241)"/><circle class="b" cx="2.708" cy="2.708" r="2.708" transform="translate(117.216 129.241)"/><circle class="b" cx="2.708" cy="2.708" r="2.708" transform="translate(128.916 129.241)"/><circle class="b" cx="2.708" cy="2.708" r="2.708" transform="translate(140.725 129.241)"/><circle class="b" cx="2.708" cy="2.708" r="2.708" transform="translate(152.425 129.241)"/><circle class="b" cx="2.708" cy="2.708" r="2.708" transform="translate(164.125 129.241)"/><circle class="b" cx="2.708" cy="2.708" r="2.708" transform="translate(175.825 129.241)"/><circle class="b" cx="2.708" cy="2.708" r="2.708" transform="translate(187.525 129.241)"/><circle class="b" cx="2.708" cy="2.708" r="2.708" transform="translate(199.333 129.241)"/><circle class="b" cx="2.708" cy="2.708" r="2.708" transform="translate(211.033 129.241)"/><circle class="b" cx="2.708" cy="2.708" r="2.708" transform="translate(222.733 129.241)"/><circle class="b" cx="2.708" cy="2.708" r="2.708" transform="translate(339.95 129.241)"/><circle class="b" cx="2.708" cy="2.708" r="2.708" transform="translate(351.649 129.241)"/><circle class="b" cx="2.708" cy="2.708" r="2.708" transform="translate(351.649 118.191)"/><circle class="b" cx="2.708" cy="2.708" r="2.708" transform="translate(363.349 129.241)"/><circle class="b" cx="2.708" cy="2.708" r="2.708" transform="translate(375.158 129.241)"/><circle class="b" cx="2.708" cy="2.708" r="2.708" transform="translate(386.858 129.241)"/><circle class="b" cx="2.708" cy="2.708" r="2.708" transform="translate(398.558 129.241)"/><circle class="b" cx="2.708" cy="2.708" r="2.708" transform="translate(410.258 129.241)"/><circle class="b" cx="2.708" cy="2.708" r="2.708" transform="translate(422.066 129.241)"/><circle class="b" cx="2.708" cy="2.708" r="2.708" transform="translate(433.766 129.241)"/><circle class="b" cx="2.708" cy="2.708" r="2.708" transform="translate(445.466 129.241)"/><circle class="b" cx="2.708" cy="2.708" r="2.708" transform="translate(457.166 129.241)"/><circle class="b" cx="2.708" cy="2.708" r="2.708" transform="translate(468.866 129.241)"/><circle class="b" cx="2.708" cy="2.708" r="2.708" transform="translate(480.674 129.241)"/><circle class="b" cx="2.708" cy="2.708" r="2.708" transform="translate(492.374 129.241)"/><circle class="b" cx="2.708" cy="2.708" r="2.708" transform="translate(504.074 129.241)"/><circle class="b" cx="2.708" cy="2.708" r="2.708" transform="translate(515.774 129.241)"/><circle class="b" cx="2.708" cy="2.708" r="2.708" transform="translate(527.474 129.241)"/><circle class="b" cx="2.708" cy="2.708" r="2.708" transform="translate(539.283 129.241)"/><circle class="b" cx="2.708" cy="2.708" r="2.708" transform="translate(550.982 129.241)"/><circle class="b" cx="2.708" cy="2.708" r="2.708" transform="translate(562.683 129.241)"/><circle class="b" cx="2.708" cy="2.708" r="2.708" transform="translate(574.383 129.241)"/><circle class="b" cx="2.708" cy="2.708" r="2.708" transform="translate(586.083 129.241)"/><circle class="b" cx="2.708" cy="2.708" r="2.708" transform="translate(597.891 129.241)"/><circle class="b" cx="2.708" cy="2.708" r="2.708" transform="translate(609.591 129.241)"/><circle class="b" cx="2.708" cy="2.708" r="2.708" transform="translate(621.291 129.241)"/><circle class="b" cx="2.708" cy="2.708" r="2.708" transform="translate(632.991 129.241)"/><circle class="b" cx="2.708" cy="2.708" r="2.708" transform="translate(644.691 129.241)"/><circle class="b" cx="2.708" cy="2.708" r="2.708" transform="translate(656.499 129.241)"/><circle class="b" cx="2.708" cy="2.708" r="2.708" transform="translate(82.008 141.05)"/><circle class="b" cx="2.708" cy="2.708" r="2.708" transform="translate(93.817 141.05)"/><circle class="b" cx="2.708" cy="2.708" r="2.708" transform="translate(105.517 141.05)"/><circle class="b" cx="2.708" cy="2.708" r="2.708" transform="translate(117.216 141.05)"/><circle class="b" cx="2.708" cy="2.708" r="2.708" transform="translate(128.916 141.05)"/><circle class="b" cx="2.708" cy="2.708" r="2.708" transform="translate(140.725 141.05)"/><circle class="b" cx="2.708" cy="2.708" r="2.708" transform="translate(152.425 141.05)"/><circle class="b" cx="2.708" cy="2.708" r="2.708" transform="translate(164.125 141.05)"/><circle class="b" cx="2.708" cy="2.708" r="2.708" transform="translate(175.825 141.05)"/><circle class="b" cx="2.708" cy="2.708" r="2.708" transform="translate(187.525 141.05)"/><circle class="b" cx="2.708" cy="2.708" r="2.708" transform="translate(199.333 141.05)"/><circle class="b" cx="2.708" cy="2.708" r="2.708" transform="translate(222.733 141.05)"/><circle class="b" cx="2.708" cy="2.708" r="2.708" transform="translate(234.433 141.05)"/><circle class="b" cx="2.708" cy="2.708" r="2.708" transform="translate(339.95 141.05)"/><circle class="b" cx="2.708" cy="2.708" r="2.708" transform="translate(351.649 141.05)"/><circle class="b" cx="2.708" cy="2.708" r="2.708" transform="translate(363.349 141.05)"/><circle class="b" cx="2.708" cy="2.708" r="2.708" transform="translate(375.158 141.05)"/><circle class="b" cx="2.708" cy="2.708" r="2.708" transform="translate(386.858 141.05)"/><circle class="b" cx="2.708" cy="2.708" r="2.708" transform="translate(398.558 141.05)"/><circle class="b" cx="2.708" cy="2.708" r="2.708" transform="translate(410.258 141.05)"/><circle class="b" cx="2.708" cy="2.708" r="2.708" transform="translate(422.066 141.05)"/><circle class="b" cx="2.708" cy="2.708" r="2.708" transform="translate(433.766 141.05)"/><circle class="b" cx="2.708" cy="2.708" r="2.708" transform="translate(445.466 141.05)"/><circle class="b" cx="2.708" cy="2.708" r="2.708" transform="translate(457.166 141.05)"/><circle class="b" cx="2.708" cy="2.708" r="2.708" transform="translate(468.866 141.05)"/><circle class="b" cx="2.708" cy="2.708" r="2.708" transform="translate(480.674 141.05)"/><circle class="b" cx="2.708" cy="2.708" r="2.708" transform="translate(492.374 141.05)"/><circle class="b" cx="2.708" cy="2.708" r="2.708" transform="translate(504.074 141.05)"/><circle class="b" cx="2.708" cy="2.708" r="2.708" transform="translate(515.774 141.05)"/><circle class="b" cx="2.708" cy="2.708" r="2.708" transform="translate(527.474 141.05)"/><circle class="b" cx="2.708" cy="2.708" r="2.708" transform="translate(539.283 141.05)"/><circle class="b" cx="2.708" cy="2.708" r="2.708" transform="translate(550.982 141.05)"/><circle class="b" cx="2.708" cy="2.708" r="2.708" transform="translate(562.683 141.05)"/><circle class="b" cx="2.708" cy="2.708" r="2.708" transform="translate(574.383 141.05)"/><circle class="b" cx="2.708" cy="2.708" r="2.708" transform="translate(586.083 141.05)"/><circle class="b" cx="2.708" cy="2.708" r="2.708" transform="translate(597.891 141.05)"/><circle class="b" cx="2.708" cy="2.708" r="2.708" transform="translate(609.591 141.05)"/><circle class="b" cx="2.708" cy="2.708" r="2.708" transform="translate(621.291 141.05)"/><circle class="b" cx="2.708" cy="2.708" r="2.708" transform="translate(632.991 141.05)"/><circle class="b" cx="2.708" cy="2.708" r="2.708" transform="translate(656.499 141.05)"/><circle class="b" cx="2.708" cy="2.708" r="2.708" transform="translate(82.008 152.75)"/><circle class="b" cx="2.708" cy="2.708" r="2.708" transform="translate(93.817 152.75)"/><circle class="b" cx="2.708" cy="2.708" r="2.708" transform="translate(105.517 152.75)"/><circle class="b" cx="2.708" cy="2.708" r="2.708" transform="translate(117.216 152.75)"/><circle class="b" cx="2.708" cy="2.708" r="2.708" transform="translate(128.916 152.75)"/><circle class="b" cx="2.708" cy="2.708" r="2.708" transform="translate(140.725 152.75)"/><circle class="b" cx="2.708" cy="2.708" r="2.708" transform="translate(152.425 152.75)"/><circle class="b" cx="2.708" cy="2.708" r="2.708" transform="translate(164.125 152.75)"/><circle class="b" cx="2.708" cy="2.708" r="2.708" transform="translate(175.825 152.75)"/><circle class="b" cx="2.708" cy="2.708" r="2.708" transform="translate(187.525 152.75)"/><circle class="b" cx="2.708" cy="2.708" r="2.708" transform="translate(339.95 152.75)"/><circle class="b" cx="2.708" cy="2.708" r="2.708" transform="translate(351.649 152.75)"/><circle class="b" cx="2.708" cy="2.708" r="2.708" transform="translate(363.349 152.75)"/><circle class="b" cx="2.708" cy="2.708" r="2.708" transform="translate(375.158 152.75)"/><circle class="b" cx="2.708" cy="2.708" r="2.708" transform="translate(398.558 152.75)"/><circle class="b" cx="2.708" cy="2.708" r="2.708" transform="translate(410.258 152.75)"/><circle class="b" cx="2.708" cy="2.708" r="2.708" transform="translate(422.066 152.75)"/><circle class="b" cx="2.708" cy="2.708" r="2.708" transform="translate(433.766 152.75)"/><circle class="b" cx="2.708" cy="2.708" r="2.708" transform="translate(445.466 152.75)"/><circle class="b" cx="2.708" cy="2.708" r="2.708" transform="translate(457.166 152.75)"/><circle class="b" cx="2.708" cy="2.708" r="2.708" transform="translate(468.866 152.75)"/><circle class="b" cx="2.708" cy="2.708" r="2.708" transform="translate(480.674 152.75)"/><circle class="b" cx="2.708" cy="2.708" r="2.708" transform="translate(492.374 152.75)"/><circle class="b" cx="2.708" cy="2.708" r="2.708" transform="translate(504.074 152.75)"/><circle class="b" cx="2.708" cy="2.708" r="2.708" transform="translate(515.774 152.75)"/><circle class="b" cx="2.708" cy="2.708" r="2.708" transform="translate(527.474 152.75)"/><circle class="b" cx="2.708" cy="2.708" r="2.708" transform="translate(539.283 152.75)"/><circle class="b" cx="2.708" cy="2.708" r="2.708" transform="translate(550.982 152.75)"/><circle class="b" cx="2.708" cy="2.708" r="2.708" transform="translate(562.683 152.75)"/><circle class="b" cx="2.708" cy="2.708" r="2.708" transform="translate(574.383 152.75)"/><circle class="b" cx="2.708" cy="2.708" r="2.708" transform="translate(586.083 152.75)"/><circle class="b" cx="2.708" cy="2.708" r="2.708" transform="translate(597.891 152.75)"/><circle class="b" cx="2.708" cy="2.708" r="2.708" transform="translate(609.591 152.75)"/><circle class="b" cx="2.708" cy="2.708" r="2.708" transform="translate(621.291 152.75)"/><circle class="b" cx="2.708" cy="2.708" r="2.708" transform="translate(632.991 152.75)"/><circle class="b" cx="2.708" cy="2.708" r="2.708" transform="translate(656.499 152.75)"/><circle class="b" cx="2.708" cy="2.708" r="2.708" transform="translate(82.008 164.45)"/><circle class="b" cx="2.708" cy="2.708" r="2.708" transform="translate(93.817 164.45)"/><circle class="b" cx="2.708" cy="2.708" r="2.708" transform="translate(105.517 164.45)"/><circle class="b" cx="2.708" cy="2.708" r="2.708" transform="translate(117.216 164.45)"/><circle class="b" cx="2.708" cy="2.708" r="2.708" transform="translate(128.916 164.45)"/><circle class="b" cx="2.708" cy="2.708" r="2.708" transform="translate(140.725 164.45)"/><circle class="b" cx="2.708" cy="2.708" r="2.708" transform="translate(152.425 164.45)"/><circle class="b" cx="2.708" cy="2.708" r="2.708" transform="translate(164.125 164.45)"/><circle class="b" cx="2.708" cy="2.708" r="2.708" transform="translate(175.825 164.45)"/><circle class="b" cx="2.708" cy="2.708" r="2.708" transform="translate(187.525 164.45)"/><circle class="b" cx="2.708" cy="2.708" r="2.708" transform="translate(328.25 164.45)"/><circle class="b" cx="2.708" cy="2.708" r="2.708" transform="translate(328.25 152.75)"/><circle class="b" cx="2.708" cy="2.708" r="2.708" transform="translate(339.95 164.45)"/><circle class="b" cx="2.708" cy="2.708" r="2.708" transform="translate(351.649 164.45)"/><circle class="b" cx="2.708" cy="2.708" r="2.708" transform="translate(375.158 164.45)"/><circle class="b" cx="2.708" cy="2.708" r="2.708" transform="translate(386.858 164.45)"/><circle class="b" cx="2.708" cy="2.708" r="2.708" transform="translate(386.858 175.283)"/><circle class="b" cx="2.708" cy="2.708" r="2.708" transform="translate(398.558 164.45)"/><circle class="b" cx="2.708" cy="2.708" r="2.708" transform="translate(398.558 175.283)"/><circle class="b" cx="2.708" cy="2.708" r="2.708" transform="translate(410.258 164.45)"/><circle class="b" cx="2.708" cy="2.708" r="2.708" transform="translate(410.258 175.825)"/><circle class="b" cx="2.708" cy="2.708" r="2.708" transform="translate(422.066 175.825)"/><circle class="b" cx="2.708" cy="2.708" r="2.708" transform="translate(422.066 191.75)"/><circle class="b" cx="2.708" cy="2.708" r="2.708" transform="translate(422.066 164.45)"/><circle class="b" cx="2.708" cy="2.708" r="2.708" transform="translate(433.766 164.45)"/><circle class="b" cx="2.708" cy="2.708" r="2.708" transform="translate(445.466 164.45)"/><circle class="b" cx="2.708" cy="2.708" r="2.708" transform="translate(457.166 164.45)"/><circle class="b" cx="2.708" cy="2.708" r="2.708" transform="translate(468.866 164.45)"/><circle class="b" cx="2.708" cy="2.708" r="2.708" transform="translate(480.674 164.45)"/><circle class="b" cx="2.708" cy="2.708" r="2.708" transform="translate(492.374 164.45)"/><circle class="b" cx="2.708" cy="2.708" r="2.708" transform="translate(504.074 164.45)"/><circle class="b" cx="2.708" cy="2.708" r="2.708" transform="translate(515.774 164.45)"/><circle class="b" cx="2.708" cy="2.708" r="2.708" transform="translate(527.474 164.45)"/><circle class="b" cx="2.708" cy="2.708" r="2.708" transform="translate(539.283 164.45)"/><circle class="b" cx="2.708" cy="2.708" r="2.708" transform="translate(550.982 164.45)"/><circle class="b" cx="2.708" cy="2.708" r="2.708" transform="translate(562.683 164.45)"/><circle class="b" cx="2.708" cy="2.708" r="2.708" transform="translate(574.383 164.45)"/><circle class="b" cx="2.708" cy="2.708" r="2.708" transform="translate(586.083 164.45)"/><circle class="b" cx="2.708" cy="2.708" r="2.708" transform="translate(597.891 164.45)"/><circle class="b" cx="2.708" cy="2.708" r="2.708" transform="translate(609.591 164.45)"/><circle class="b" cx="2.708" cy="2.708" r="2.708" transform="translate(621.291 164.45)"/><circle class="b" cx="2.708" cy="2.708" r="2.708" transform="translate(656.499 164.45)"/><circle class="b" cx="2.708" cy="2.708" r="2.708" transform="translate(82.008 176.258)"/><circle class="b" cx="2.708" cy="2.708" r="2.708" transform="translate(93.817 176.258)"/><circle class="b" cx="2.708" cy="2.708" r="2.708" transform="translate(105.517 176.258)"/><circle class="b" cx="2.708" cy="2.708" r="2.708" transform="translate(117.216 176.258)"/><circle class="b" cx="2.708" cy="2.708" r="2.708" transform="translate(128.916 176.258)"/><circle class="b" cx="2.708" cy="2.708" r="2.708" transform="translate(140.725 176.258)"/><circle class="b" cx="2.708" cy="2.708" r="2.708" transform="translate(152.425 176.258)"/><circle class="b" cx="2.708" cy="2.708" r="2.708" transform="translate(164.125 176.258)"/><circle class="b" cx="2.708" cy="2.708" r="2.708" transform="translate(175.825 176.258)"/><circle class="b" cx="2.708" cy="2.708" r="2.708" transform="translate(351.649 176.258)"/><circle class="b" cx="2.708" cy="2.708" r="2.708" transform="translate(363.349 176.258)"/><circle class="b" cx="2.708" cy="2.708" r="2.708" transform="translate(433.766 176.258)"/><circle class="b" cx="2.708" cy="2.708" r="2.708" transform="translate(445.466 176.258)"/><circle class="b" cx="2.708" cy="2.708" r="2.708" transform="translate(457.166 176.258)"/><circle class="b" cx="2.708" cy="2.708" r="2.708" transform="translate(468.866 176.258)"/><circle class="b" cx="2.708" cy="2.708" r="2.708" transform="translate(480.674 176.258)"/><circle class="b" cx="2.708" cy="2.708" r="2.708" transform="translate(492.374 176.258)"/><circle class="b" cx="2.708" cy="2.708" r="2.708" transform="translate(504.074 176.258)"/><circle class="b" cx="2.708" cy="2.708" r="2.708" transform="translate(515.774 176.258)"/><circle class="b" cx="2.708" cy="2.708" r="2.708" transform="translate(527.474 176.258)"/><circle class="b" cx="2.708" cy="2.708" r="2.708" transform="translate(539.283 176.258)"/><circle class="b" cx="2.708" cy="2.708" r="2.708" transform="translate(550.982 176.258)"/><circle class="b" cx="2.708" cy="2.708" r="2.708" transform="translate(562.683 176.258)"/><circle class="b" cx="2.708" cy="2.708" r="2.708" transform="translate(574.383 176.258)"/><circle class="b" cx="2.708" cy="2.708" r="2.708" transform="translate(586.083 176.258)"/><circle class="b" cx="2.708" cy="2.708" r="2.708" transform="translate(597.891 176.258)"/><circle class="b" cx="2.708" cy="2.708" r="2.708" transform="translate(609.591 176.258)"/><circle class="b" cx="2.708" cy="2.708" r="2.708" transform="translate(644.691 176.258)"/><circle class="b" cx="2.708" cy="2.708" r="2.708" transform="translate(656.499 176.258)"/><circle class="b" cx="2.708" cy="2.708" r="2.708" transform="translate(93.817 187.958)"/><circle class="b" cx="2.708" cy="2.708" r="2.708" transform="translate(105.517 187.958)"/><circle class="b" cx="2.708" cy="2.708" r="2.708" transform="translate(117.216 187.958)"/><circle class="b" cx="2.708" cy="2.708" r="2.708" transform="translate(128.916 187.958)"/><circle class="b" cx="2.708" cy="2.708" r="2.708" transform="translate(140.725 187.958)"/><circle class="b" cx="2.708" cy="2.708" r="2.708" transform="translate(152.425 187.958)"/><circle class="b" cx="2.708" cy="2.708" r="2.708" transform="translate(164.125 187.958)"/><circle class="b" cx="2.708" cy="2.708" r="2.708" transform="translate(175.825 187.958)"/><circle class="b" cx="2.708" cy="2.708" r="2.708" transform="translate(328.25 187.958)"/><circle class="b" cx="2.708" cy="2.708" r="2.708" transform="translate(339.95 187.958)"/><circle class="b" cx="2.708" cy="2.708" r="2.708" transform="translate(351.649 187.958)"/><circle class="b" cx="2.708" cy="2.708" r="2.708" transform="translate(363.349 187.958)"/><circle class="b" cx="2.708" cy="2.708" r="2.708" transform="translate(375.158 187.958)"/><circle class="b" cx="2.708" cy="2.708" r="2.708" transform="translate(433.766 187.958)"/><circle class="b" cx="2.708" cy="2.708" r="2.708" transform="translate(445.466 187.958)"/><circle class="b" cx="2.708" cy="2.708" r="2.708" transform="translate(457.166 187.958)"/><circle class="b" cx="2.708" cy="2.708" r="2.708" transform="translate(468.866 187.958)"/><circle class="b" cx="2.708" cy="2.708" r="2.708" transform="translate(480.674 187.958)"/><circle class="b" cx="2.708" cy="2.708" r="2.708" transform="translate(492.374 187.958)"/><circle class="b" cx="2.708" cy="2.708" r="2.708" transform="translate(504.074 187.958)"/><circle class="b" cx="2.708" cy="2.708" r="2.708" transform="translate(515.774 187.958)"/><circle class="b" cx="2.708" cy="2.708" r="2.708" transform="translate(527.474 187.958)"/><circle class="b" cx="2.708" cy="2.708" r="2.708" transform="translate(539.283 187.958)"/><circle class="b" cx="2.708" cy="2.708" r="2.708" transform="translate(550.982 187.958)"/><circle class="b" cx="2.708" cy="2.708" r="2.708" transform="translate(562.683 187.958)"/><circle class="b" cx="2.708" cy="2.708" r="2.708" transform="translate(574.383 187.958)"/><circle class="b" cx="2.708" cy="2.708" r="2.708" transform="translate(586.083 187.958)"/><circle class="b" cx="2.708" cy="2.708" r="2.708" transform="translate(597.891 187.958)"/><circle class="b" cx="2.708" cy="2.708" r="2.708" transform="translate(609.591 187.958)"/><circle class="b" cx="2.708" cy="2.708" r="2.708" transform="translate(93.817 199.766)"/><circle class="b" cx="2.708" cy="2.708" r="2.708" transform="translate(105.517 199.766)"/><circle class="b" cx="2.708" cy="2.708" r="2.708" transform="translate(117.216 199.766)"/><circle class="b" cx="2.708" cy="2.708" r="2.708" transform="translate(128.916 199.766)"/><circle class="b" cx="2.708" cy="2.708" r="2.708" transform="translate(152.425 199.766)"/><circle class="b" cx="2.708" cy="2.708" r="2.708" transform="translate(164.125 199.766)"/><circle class="b" cx="2.708" cy="2.708" r="2.708" transform="translate(175.825 199.766)"/><circle class="b" cx="2.708" cy="2.708" r="2.708" transform="translate(328.25 199.766)"/><circle class="b" cx="2.708" cy="2.708" r="2.708" transform="translate(339.95 199.766)"/><circle class="b" cx="2.708" cy="2.708" r="2.708" transform="translate(351.649 199.766)"/><circle class="b" cx="2.708" cy="2.708" r="2.708" transform="translate(363.349 199.766)"/><circle class="b" cx="2.708" cy="2.708" r="2.708" transform="translate(375.158 199.766)"/><circle class="b" cx="2.708" cy="2.708" r="2.708" transform="translate(386.858 199.766)"/><circle class="b" cx="2.708" cy="2.708" r="2.708" transform="translate(398.558 199.766)"/><circle class="b" cx="2.708" cy="2.708" r="2.708" transform="translate(398.558 189.041)"/><circle class="b" cx="2.708" cy="2.708" r="2.708" transform="translate(410.258 199.766)"/><circle class="b" cx="2.708" cy="2.708" r="2.708" transform="translate(422.066 199.766)"/><circle class="b" cx="2.708" cy="2.708" r="2.708" transform="translate(433.766 199.766)"/><circle class="b" cx="2.708" cy="2.708" r="2.708" transform="translate(445.466 199.766)"/><circle class="b" cx="2.708" cy="2.708" r="2.708" transform="translate(457.166 199.766)"/><circle class="b" cx="2.708" cy="2.708" r="2.708" transform="translate(480.674 199.766)"/><circle class="b" cx="2.708" cy="2.708" r="2.708" transform="translate(492.374 199.766)"/><circle class="b" cx="2.708" cy="2.708" r="2.708" transform="translate(504.074 199.766)"/><circle class="b" cx="2.708" cy="2.708" r="2.708" transform="translate(515.774 199.766)"/><circle class="b" cx="2.708" cy="2.708" r="2.708" transform="translate(527.474 199.766)"/><circle class="b" cx="2.708" cy="2.708" r="2.708" transform="translate(539.283 199.766)"/><circle class="b" cx="2.708" cy="2.708" r="2.708" transform="translate(550.982 199.766)"/><circle class="b" cx="2.708" cy="2.708" r="2.708" transform="translate(562.683 199.766)"/><circle class="b" cx="2.708" cy="2.708" r="2.708" transform="translate(574.383 199.766)"/><circle class="b" cx="2.708" cy="2.708" r="2.708" transform="translate(586.083 199.766)"/><circle class="b" cx="2.708" cy="2.708" r="2.708" transform="translate(597.891 199.766)"/><circle class="b" cx="2.708" cy="2.708" r="2.708" transform="translate(609.591 199.766)"/><circle class="b" cx="2.708" cy="2.708" r="2.708" transform="translate(93.817 211.466)"/><circle class="b" cx="2.708" cy="2.708" r="2.708" transform="translate(105.517 211.466)"/><circle class="b" cx="2.708" cy="2.708" r="2.708" transform="translate(117.216 211.466)"/><circle class="b" cx="2.708" cy="2.708" r="2.708" transform="translate(128.916 211.466)"/><circle class="b" cx="2.708" cy="2.708" r="2.708" transform="translate(316.55 211.466)"/><circle class="b" cx="2.708" cy="2.708" r="2.708" transform="translate(328.25 211.466)"/><circle class="b" cx="2.708" cy="2.708" r="2.708" transform="translate(339.95 211.466)"/><circle class="b" cx="2.708" cy="2.708" r="2.708" transform="translate(351.649 211.466)"/><circle class="b" cx="2.708" cy="2.708" r="2.708" transform="translate(363.349 211.466)"/><circle class="b" cx="2.708" cy="2.708" r="2.708" transform="translate(375.158 211.466)"/><circle class="b" cx="2.708" cy="2.708" r="2.708" transform="translate(386.858 211.466)"/><circle class="b" cx="2.708" cy="2.708" r="2.708" transform="translate(398.558 211.466)"/><circle class="b" cx="2.708" cy="2.708" r="2.708" transform="translate(410.258 211.466)"/><circle class="b" cx="2.708" cy="2.708" r="2.708" transform="translate(422.066 211.466)"/><circle class="b" cx="2.708" cy="2.708" r="2.708" transform="translate(445.466 211.466)"/><circle class="b" cx="2.708" cy="2.708" r="2.708" transform="translate(457.166 211.466)"/><circle class="b" cx="2.708" cy="2.708" r="2.708" transform="translate(468.866 211.466)"/><circle class="b" cx="2.708" cy="2.708" r="2.708" transform="translate(492.374 211.466)"/><circle class="b" cx="2.708" cy="2.708" r="2.708" transform="translate(504.074 211.466)"/><circle class="b" cx="2.708" cy="2.708" r="2.708" transform="translate(515.774 211.466)"/><circle class="b" cx="2.708" cy="2.708" r="2.708" transform="translate(527.474 211.466)"/><circle class="b" cx="2.708" cy="2.708" r="2.708" transform="translate(539.283 211.466)"/><circle class="b" cx="2.708" cy="2.708" r="2.708" transform="translate(550.982 211.466)"/><circle class="b" cx="2.708" cy="2.708" r="2.708" transform="translate(562.683 211.466)"/><circle class="b" cx="2.708" cy="2.708" r="2.708" transform="translate(574.383 211.466)"/><circle class="b" cx="2.708" cy="2.708" r="2.708" transform="translate(586.083 211.466)"/><circle class="b" cx="2.708" cy="2.708" r="2.708" transform="translate(597.891 211.466)"/><circle class="b" cx="2.708" cy="2.708" r="2.708" transform="translate(609.591 211.466)"/><circle class="b" cx="2.708" cy="2.708" r="2.708" transform="translate(117.216 223.275)"/><circle class="b" cx="2.708" cy="2.708" r="2.708" transform="translate(128.916 223.275)"/><circle class="b" cx="2.708" cy="2.708" r="2.708" transform="translate(140.725 223.275)"/><circle class="b" cx="2.708" cy="2.708" r="2.708" transform="translate(164.125 223.275)"/><circle class="b" cx="2.708" cy="2.708" r="2.708" transform="translate(187.525 223.275)"/><circle class="b" cx="2.708" cy="2.708" r="2.708" transform="translate(199.333 223.275)"/><circle class="b" cx="2.708" cy="2.708" r="2.708" transform="translate(316.55 223.275)"/><circle class="b" cx="2.708" cy="2.708" r="2.708" transform="translate(328.25 223.275)"/><circle class="b" cx="2.708" cy="2.708" r="2.708" transform="translate(339.95 223.275)"/><circle class="b" cx="2.708" cy="2.708" r="2.708" transform="translate(351.649 223.275)"/><circle class="b" cx="2.708" cy="2.708" r="2.708" transform="translate(363.349 223.275)"/><circle class="b" cx="2.708" cy="2.708" r="2.708" transform="translate(375.158 223.275)"/><circle class="b" cx="2.708" cy="2.708" r="2.708" transform="translate(386.858 223.275)"/><circle class="b" cx="2.708" cy="2.708" r="2.708" transform="translate(398.558 223.275)"/><circle class="b" cx="2.708" cy="2.708" r="2.708" transform="translate(410.258 223.275)"/><circle class="b" cx="2.708" cy="2.708" r="2.708" transform="translate(422.066 223.275)"/><circle class="b" cx="2.708" cy="2.708" r="2.708" transform="translate(445.466 223.275)"/><circle class="b" cx="2.708" cy="2.708" r="2.708" transform="translate(457.166 223.275)"/><circle class="b" cx="2.708" cy="2.708" r="2.708" transform="translate(468.866 223.275)"/><circle class="b" cx="2.708" cy="2.708" r="2.708" transform="translate(480.674 223.275)"/><circle class="b" cx="2.708" cy="2.708" r="2.708" transform="translate(515.774 223.275)"/><circle class="b" cx="2.708" cy="2.708" r="2.708" transform="translate(527.474 223.275)"/><circle class="b" cx="2.708" cy="2.708" r="2.708" transform="translate(539.283 223.275)"/><circle class="b" cx="2.708" cy="2.708" r="2.708" transform="translate(562.683 223.275)"/><circle class="b" cx="2.708" cy="2.708" r="2.708" transform="translate(574.383 223.275)"/><circle class="b" cx="2.708" cy="2.708" r="2.708" transform="translate(586.083 223.275)"/><circle class="b" cx="2.708" cy="2.708" r="2.708" transform="translate(597.891 223.275)"/><circle class="b" cx="2.708" cy="2.708" r="2.708" transform="translate(621.291 223.275)"/><circle class="b" cx="2.708" cy="2.708" r="2.708" transform="translate(632.991 223.275)"/><circle class="b" cx="2.708" cy="2.708" r="2.708" transform="translate(117.216 234.975)"/><circle class="b" cx="2.708" cy="2.708" r="2.708" transform="translate(128.916 234.975)"/><circle class="b" cx="2.708" cy="2.708" r="2.708" transform="translate(140.725 234.975)"/><circle class="b" cx="2.708" cy="2.708" r="2.708" transform="translate(152.425 234.975)"/><circle class="b" cx="2.708" cy="2.708" r="2.708" transform="translate(316.55 234.975)"/><circle class="b" cx="2.708" cy="2.708" r="2.708" transform="translate(295.1 234.975)"/><circle class="b" cx="2.708" cy="2.708" r="2.708" transform="translate(328.25 234.975)"/><circle class="b" cx="2.708" cy="2.708" r="2.708" transform="translate(339.95 234.975)"/><circle class="b" cx="2.708" cy="2.708" r="2.708" transform="translate(351.649 234.975)"/><circle class="b" cx="2.708" cy="2.708" r="2.708" transform="translate(363.349 234.975)"/><circle class="b" cx="2.708" cy="2.708" r="2.708" transform="translate(375.158 234.975)"/><circle class="b" cx="2.708" cy="2.708" r="2.708" transform="translate(386.858 234.975)"/><circle class="b" cx="2.708" cy="2.708" r="2.708" transform="translate(398.558 234.975)"/><circle class="b" cx="2.708" cy="2.708" r="2.708" transform="translate(410.258 234.975)"/><circle class="b" cx="2.708" cy="2.708" r="2.708" transform="translate(422.066 234.975)"/><circle class="b" cx="2.708" cy="2.708" r="2.708" transform="translate(433.766 234.975)"/><circle class="b" cx="2.708" cy="2.708" r="2.708" transform="translate(457.166 234.975)"/><circle class="b" cx="2.708" cy="2.708" r="2.708" transform="translate(468.866 234.975)"/><circle class="b" cx="2.708" cy="2.708" r="2.708" transform="translate(515.774 234.975)"/><circle class="b" cx="2.708" cy="2.708" r="2.708" transform="translate(527.474 234.975)"/><circle class="b" cx="2.708" cy="2.708" r="2.708" transform="translate(562.683 234.975)"/><circle class="b" cx="2.708" cy="2.708" r="2.708" transform="translate(574.383 234.975)"/><circle class="b" cx="2.708" cy="2.708" r="2.708" transform="translate(586.083 234.975)"/><circle class="b" cx="2.708" cy="2.708" r="2.708" transform="translate(632.991 234.975)"/><path class="b" d="M595.1,219.4" transform="translate(49.591 18.283)"/><circle class="b" cx="2.708" cy="2.708" r="2.708" transform="translate(152.425 246.783)"/><circle class="b" cx="2.708" cy="2.708" r="2.708" transform="translate(175.825 246.783)"/><circle class="b" cx="2.708" cy="2.708" r="2.708" transform="translate(187.525 246.783)"/><circle class="b" cx="2.708" cy="2.708" r="2.708" transform="translate(199.333 246.783)"/><circle class="b" cx="2.708" cy="2.708" r="2.708" transform="translate(316.55 246.783)"/><circle class="b" cx="2.708" cy="2.708" r="2.708" transform="translate(328.25 246.783)"/><circle class="b" cx="2.708" cy="2.708" r="2.708" transform="translate(339.95 246.783)"/><circle class="b" cx="2.708" cy="2.708" r="2.708" transform="translate(351.649 246.783)"/><circle class="b" cx="2.708" cy="2.708" r="2.708" transform="translate(363.349 246.783)"/><circle class="b" cx="2.708" cy="2.708" r="2.708" transform="translate(375.158 246.783)"/><circle class="b" cx="2.708" cy="2.708" r="2.708" transform="translate(386.858 246.783)"/><circle class="b" cx="2.708" cy="2.708" r="2.708" transform="translate(398.558 246.783)"/><circle class="b" cx="2.708" cy="2.708" r="2.708" transform="translate(410.258 246.783)"/><circle class="b" cx="2.708" cy="2.708" r="2.708" transform="translate(422.066 246.783)"/><circle class="b" cx="2.708" cy="2.708" r="2.708" transform="translate(433.766 246.783)"/><circle class="b" cx="2.708" cy="2.708" r="2.708" transform="translate(515.774 246.783)"/><circle class="b" cx="2.708" cy="2.708" r="2.708" transform="translate(527.474 246.783)"/><circle class="b" cx="2.708" cy="2.708" r="2.708" transform="translate(562.683 246.783)"/><circle class="b" cx="2.708" cy="2.708" r="2.708" transform="translate(574.383 246.783)"/><circle class="b" cx="2.708" cy="2.708" r="2.708" transform="translate(586.083 246.783)"/><circle class="b" cx="2.708" cy="2.708" r="2.708" transform="translate(632.991 246.783)"/><path class="b" d="M595.1,230.3" transform="translate(49.591 19.191)"/><circle class="b" cx="2.708" cy="2.708" r="2.708" transform="translate(164.125 258.483)"/><circle class="b" cx="2.708" cy="2.708" r="2.708" transform="translate(175.825 258.483)"/><circle class="b" cx="2.708" cy="2.708" r="2.708" transform="translate(187.525 258.483)"/><circle class="b" cx="2.708" cy="2.708" r="2.708" transform="translate(199.333 258.483)"/><circle class="b" cx="2.708" cy="2.708" r="2.708" transform="translate(211.033 258.483)"/><circle class="b" cx="2.708" cy="2.708" r="2.708" transform="translate(316.55 258.483)"/><circle class="b" cx="2.708" cy="2.708" r="2.708" transform="translate(328.25 258.483)"/><circle class="b" cx="2.708" cy="2.708" r="2.708" transform="translate(339.95 258.483)"/><circle class="b" cx="2.708" cy="2.708" r="2.708" transform="translate(351.649 258.483)"/><circle class="b" cx="2.708" cy="2.708" r="2.708" transform="translate(363.349 258.483)"/><circle class="b" cx="2.708" cy="2.708" r="2.708" transform="translate(375.158 258.483)"/><circle class="b" cx="2.708" cy="2.708" r="2.708" transform="translate(386.858 258.483)"/><circle class="b" cx="2.708" cy="2.708" r="2.708" transform="translate(398.558 258.483)"/><circle class="b" cx="2.708" cy="2.708" r="2.708" transform="translate(410.258 258.483)"/><circle class="b" cx="2.708" cy="2.708" r="2.708" transform="translate(422.066 258.483)"/><circle class="b" cx="2.708" cy="2.708" r="2.708" transform="translate(433.766 258.483)"/><circle class="b" cx="2.708" cy="2.708" r="2.708" transform="translate(445.466 258.483)"/><circle class="b" cx="2.708" cy="2.708" r="2.708" transform="translate(457.166 258.483)"/><circle class="b" cx="2.708" cy="2.708" r="2.708" transform="translate(562.683 258.483)"/><circle class="b" cx="2.708" cy="2.708" r="2.708" transform="translate(574.383 258.483)"/><circle class="b" cx="2.708" cy="2.708" r="2.708" transform="translate(609.591 258.483)"/><path class="b" d="M573.5,254.5" transform="translate(47.791 21.208)"/><circle class="b" cx="2.708" cy="2.708" r="2.708" transform="translate(164.125 270.291)"/><circle class="b" cx="2.708" cy="2.708" r="2.708" transform="translate(175.825 270.291)"/><circle class="b" cx="2.708" cy="2.708" r="2.708" transform="translate(187.525 270.291)"/><circle class="b" cx="2.708" cy="2.708" r="2.708" transform="translate(199.333 270.291)"/><circle class="b" cx="2.708" cy="2.708" r="2.708" transform="translate(211.033 270.291)"/><circle class="b" cx="2.708" cy="2.708" r="2.708" transform="translate(222.733 270.291)"/><circle class="b" cx="2.708" cy="2.708" r="2.708" transform="translate(375.158 270.291)"/><circle class="b" cx="2.708" cy="2.708" r="2.708" transform="translate(386.858 270.291)"/><circle class="b" cx="2.708" cy="2.708" r="2.708" transform="translate(398.558 270.291)"/><circle class="b" cx="2.708" cy="2.708" r="2.708" transform="translate(410.258 270.291)"/><circle class="b" cx="2.708" cy="2.708" r="2.708" transform="translate(422.066 270.291)"/><circle class="b" cx="2.708" cy="2.708" r="2.708" transform="translate(433.766 270.291)"/><circle class="b" cx="2.708" cy="2.708" r="2.708" transform="translate(445.466 270.291)"/><circle class="b" cx="2.708" cy="2.708" r="2.708" transform="translate(562.683 270.291)"/><circle class="b" cx="2.708" cy="2.708" r="2.708" transform="translate(574.383 270.291)"/><circle class="b" cx="2.708" cy="2.708" r="2.708" transform="translate(597.891 270.291)"/><circle class="b" cx="2.708" cy="2.708" r="2.708" transform="translate(609.591 270.291)"/><circle class="b" cx="2.708" cy="2.708" r="2.708" transform="translate(164.125 281.991)"/><circle class="b" cx="2.708" cy="2.708" r="2.708" transform="translate(175.825 281.991)"/><circle class="b" cx="2.708" cy="2.708" r="2.708" transform="translate(187.525 281.991)"/><circle class="b" cx="2.708" cy="2.708" r="2.708" transform="translate(199.333 281.991)"/><circle class="b" cx="2.708" cy="2.708" r="2.708" transform="translate(211.033 281.991)"/><circle class="b" cx="2.708" cy="2.708" r="2.708" transform="translate(222.733 281.991)"/><circle class="b" cx="2.708" cy="2.708" r="2.708" transform="translate(234.433 281.991)"/><circle class="b" cx="2.708" cy="2.708" r="2.708" transform="translate(375.158 281.991)"/><circle class="b" cx="2.708" cy="2.708" r="2.708" transform="translate(386.858 281.991)"/><circle class="b" cx="2.708" cy="2.708" r="2.708" transform="translate(398.558 281.991)"/><circle class="b" cx="2.708" cy="2.708" r="2.708" transform="translate(410.258 281.991)"/><circle class="b" cx="2.708" cy="2.708" r="2.708" transform="translate(422.066 281.991)"/><circle class="b" cx="2.708" cy="2.708" r="2.708" transform="translate(433.766 281.991)"/><circle class="b" cx="2.708" cy="2.708" r="2.708" transform="translate(574.383 281.991)"/><circle class="b" cx="2.708" cy="2.708" r="2.708" transform="translate(597.891 281.991)"/><circle class="b" cx="2.708" cy="2.708" r="2.708" transform="translate(609.591 281.991)"/><circle class="b" cx="2.708" cy="2.708" r="2.708" transform="translate(621.291 281.991)"/><circle class="b" cx="2.708" cy="2.708" r="2.708" transform="translate(632.991 281.991)"/><circle class="b" cx="2.708" cy="2.708" r="2.708" transform="translate(644.691 281.991)"/><circle class="b" cx="2.708" cy="2.708" r="2.708" transform="translate(656.499 281.991)"/><circle class="b" cx="2.708" cy="2.708" r="2.708" transform="translate(668.199 281.991)"/><circle class="b" cx="2.708" cy="2.708" r="2.708" transform="translate(164.125 293.8)"/><circle class="b" cx="2.708" cy="2.708" r="2.708" transform="translate(175.825 293.8)"/><circle class="b" cx="2.708" cy="2.708" r="2.708" transform="translate(187.525 293.8)"/><circle class="b" cx="2.708" cy="2.708" r="2.708" transform="translate(199.333 293.8)"/><circle class="b" cx="2.708" cy="2.708" r="2.708" transform="translate(211.033 293.8)"/><circle class="b" cx="2.708" cy="2.708" r="2.708" transform="translate(222.733 293.8)"/><circle class="b" cx="2.708" cy="2.708" r="2.708" transform="translate(234.433 293.8)"/><circle class="b" cx="2.708" cy="2.708" r="2.708" transform="translate(246.133 293.8)"/><circle class="b" cx="2.708" cy="2.708" r="2.708" transform="translate(257.941 293.8)"/><circle class="b" cx="2.708" cy="2.708" r="2.708" transform="translate(375.158 293.8)"/><circle class="b" cx="2.708" cy="2.708" r="2.708" transform="translate(386.858 293.8)"/><circle class="b" cx="2.708" cy="2.708" r="2.708" transform="translate(398.558 293.8)"/><circle class="b" cx="2.708" cy="2.708" r="2.708" transform="translate(410.258 293.8)"/><circle class="b" cx="2.708" cy="2.708" r="2.708" transform="translate(422.066 293.8)"/><circle class="b" cx="2.708" cy="2.708" r="2.708" transform="translate(433.766 293.8)"/><circle class="b" cx="2.708" cy="2.708" r="2.708" transform="translate(574.383 293.8)"/><circle class="b" cx="2.708" cy="2.708" r="2.708" transform="translate(586.083 293.8)"/><circle class="b" cx="2.708" cy="2.708" r="2.708" transform="translate(597.891 293.8)"/><circle class="b" cx="2.708" cy="2.708" r="2.708" transform="translate(656.499 293.8)"/><circle class="b" cx="2.708" cy="2.708" r="2.708" transform="translate(668.199 293.8)"/><circle class="b" cx="2.708" cy="2.708" r="2.708" transform="translate(679.899 293.8)"/><circle class="b" cx="2.708" cy="2.708" r="2.708" transform="translate(164.125 305.5)"/><circle class="b" cx="2.708" cy="2.708" r="2.708" transform="translate(175.825 305.5)"/><circle class="b" cx="2.708" cy="2.708" r="2.708" transform="translate(187.525 305.5)"/><circle class="b" cx="2.708" cy="2.708" r="2.708" transform="translate(199.333 305.5)"/><circle class="b" cx="2.708" cy="2.708" r="2.708" transform="translate(211.033 305.5)"/><circle class="b" cx="2.708" cy="2.708" r="2.708" transform="translate(222.733 305.5)"/><circle class="b" cx="2.708" cy="2.708" r="2.708" transform="translate(234.433 305.5)"/><circle class="b" cx="2.708" cy="2.708" r="2.708" transform="translate(246.133 305.5)"/><circle class="b" cx="2.708" cy="2.708" r="2.708" transform="translate(257.941 305.5)"/><circle class="b" cx="2.708" cy="2.708" r="2.708" transform="translate(375.158 305.5)"/><circle class="b" cx="2.708" cy="2.708" r="2.708" transform="translate(386.858 305.5)"/><circle class="b" cx="2.708" cy="2.708" r="2.708" transform="translate(398.558 305.5)"/><circle class="b" cx="2.708" cy="2.708" r="2.708" transform="translate(410.258 305.5)"/><circle class="b" cx="2.708" cy="2.708" r="2.708" transform="translate(422.066 305.5)"/><circle class="b" cx="2.708" cy="2.708" r="2.708" transform="translate(433.766 305.5)"/><circle class="b" cx="2.708" cy="2.708" r="2.708" transform="translate(668.199 305.5)"/><circle class="b" cx="2.708" cy="2.708" r="2.708" transform="translate(175.825 317.2)"/><circle class="b" cx="2.708" cy="2.708" r="2.708" transform="translate(187.525 317.2)"/><circle class="b" cx="2.708" cy="2.708" r="2.708" transform="translate(199.333 317.2)"/><circle class="b" cx="2.708" cy="2.708" r="2.708" transform="translate(211.033 317.2)"/><circle class="b" cx="2.708" cy="2.708" r="2.708" transform="translate(222.733 317.2)"/><circle class="b" cx="2.708" cy="2.708" r="2.708" transform="translate(234.433 317.2)"/><circle class="b" cx="2.708" cy="2.708" r="2.708" transform="translate(246.133 317.2)"/><circle class="b" cx="2.708" cy="2.708" r="2.708" transform="translate(257.941 317.2)"/><circle class="b" cx="2.708" cy="2.708" r="2.708" transform="translate(375.158 317.2)"/><circle class="b" cx="2.708" cy="2.708" r="2.708" transform="translate(386.858 317.2)"/><circle class="b" cx="2.708" cy="2.708" r="2.708" transform="translate(398.558 317.2)"/><circle class="b" cx="2.708" cy="2.708" r="2.708" transform="translate(410.258 317.2)"/><circle class="b" cx="2.708" cy="2.708" r="2.708" transform="translate(422.066 317.2)"/><circle class="b" cx="2.708" cy="2.708" r="2.708" transform="translate(433.766 317.2)"/><circle class="b" cx="2.708" cy="2.708" r="2.708" transform="translate(457.166 317.2)"/><circle class="b" cx="2.708" cy="2.708" r="2.708" transform="translate(632.991 317.2)"/><circle class="b" cx="2.708" cy="2.708" r="2.708" transform="translate(644.691 317.2)"/><circle class="b" cx="2.708" cy="2.708" r="2.708" transform="translate(656.499 317.2)"/><circle class="b" cx="2.708" cy="2.708" r="2.708" transform="translate(668.199 317.2)"/><path class="b" d="M156.5,306.2" transform="translate(13.041 25.516)"/><circle class="b" cx="2.708" cy="2.708" r="2.708" transform="translate(187.525 329.008)"/><circle class="b" cx="2.708" cy="2.708" r="2.708" transform="translate(199.333 329.008)"/><circle class="b" cx="2.708" cy="2.708" r="2.708" transform="translate(211.033 329.008)"/><circle class="b" cx="2.708" cy="2.708" r="2.708" transform="translate(222.733 329.008)"/><circle class="b" cx="2.708" cy="2.708" r="2.708" transform="translate(234.433 329.008)"/><circle class="b" cx="2.708" cy="2.708" r="2.708" transform="translate(246.133 329.008)"/><circle class="b" cx="2.708" cy="2.708" r="2.708" transform="translate(375.158 329.008)"/><circle class="b" cx="2.708" cy="2.708" r="2.708" transform="translate(386.858 329.008)"/><circle class="b" cx="2.708" cy="2.708" r="2.708" transform="translate(398.558 329.008)"/><circle class="b" cx="2.708" cy="2.708" r="2.708" transform="translate(410.258 329.008)"/><circle class="b" cx="2.708" cy="2.708" r="2.708" transform="translate(422.066 329.008)"/><circle class="b" cx="2.708" cy="2.708" r="2.708" transform="translate(433.766 329.008)"/><circle class="b" cx="2.708" cy="2.708" r="2.708" transform="translate(445.466 329.008)"/><circle class="b" cx="2.708" cy="2.708" r="2.708" transform="translate(457.166 329.008)"/><circle class="b" cx="2.708" cy="2.708" r="2.708" transform="translate(621.291 329.008)"/><circle class="b" cx="2.708" cy="2.708" r="2.708" transform="translate(632.991 329.008)"/><circle class="b" cx="2.708" cy="2.708" r="2.708" transform="translate(644.691 329.008)"/><circle class="b" cx="2.708" cy="2.708" r="2.708" transform="translate(656.499 329.008)"/><circle class="b" cx="2.708" cy="2.708" r="2.708" transform="translate(668.199 329.008)"/><circle class="b" cx="2.708" cy="2.708" r="2.708" transform="translate(187.525 340.708)"/><circle class="b" cx="2.708" cy="2.708" r="2.708" transform="translate(199.333 340.708)"/><circle class="b" cx="2.708" cy="2.708" r="2.708" transform="translate(211.033 340.708)"/><circle class="b" cx="2.708" cy="2.708" r="2.708" transform="translate(222.733 340.708)"/><circle class="b" cx="2.708" cy="2.708" r="2.708" transform="translate(234.433 340.708)"/><circle class="b" cx="2.708" cy="2.708" r="2.708" transform="translate(246.133 340.708)"/><circle class="b" cx="2.708" cy="2.708" r="2.708" transform="translate(386.858 340.708)"/><circle class="b" cx="2.708" cy="2.708" r="2.708" transform="translate(398.558 340.708)"/><circle class="b" cx="2.708" cy="2.708" r="2.708" transform="translate(410.258 340.708)"/><circle class="b" cx="2.708" cy="2.708" r="2.708" transform="translate(422.066 340.708)"/><circle class="b" cx="2.708" cy="2.708" r="2.708" transform="translate(445.466 340.708)"/><circle class="b" cx="2.708" cy="2.708" r="2.708" transform="translate(457.166 340.708)"/><circle class="b" cx="2.708" cy="2.708" r="2.708" transform="translate(609.591 340.708)"/><circle class="b" cx="2.708" cy="2.708" r="2.708" transform="translate(621.291 340.708)"/><circle class="b" cx="2.708" cy="2.708" r="2.708" transform="translate(632.991 340.708)"/><circle class="b" cx="2.708" cy="2.708" r="2.708" transform="translate(644.691 340.708)"/><circle class="b" cx="2.708" cy="2.708" r="2.708" transform="translate(656.499 340.708)"/><circle class="b" cx="2.708" cy="2.708" r="2.708" transform="translate(668.199 340.708)"/><circle class="b" cx="2.708" cy="2.708" r="2.708" transform="translate(679.899 340.708)"/><circle class="b" cx="2.708" cy="2.708" r="2.708" transform="translate(187.525 352.516)"/><circle class="b" cx="2.708" cy="2.708" r="2.708" transform="translate(199.333 352.516)"/><circle class="b" cx="2.708" cy="2.708" r="2.708" transform="translate(211.033 352.516)"/><circle class="b" cx="2.708" cy="2.708" r="2.708" transform="translate(222.733 352.516)"/><circle class="b" cx="2.708" cy="2.708" r="2.708" transform="translate(234.433 352.516)"/><circle class="b" cx="2.708" cy="2.708" r="2.708" transform="translate(386.858 352.516)"/><circle class="b" cx="2.708" cy="2.708" r="2.708" transform="translate(398.558 352.516)"/><circle class="b" cx="2.708" cy="2.708" r="2.708" transform="translate(410.258 352.516)"/><circle class="b" cx="2.708" cy="2.708" r="2.708" transform="translate(422.066 352.516)"/><circle class="b" cx="2.708" cy="2.708" r="2.708" transform="translate(445.466 352.516)"/><circle class="b" cx="2.708" cy="2.708" r="2.708" transform="translate(609.591 352.516)"/><circle class="b" cx="2.708" cy="2.708" r="2.708" transform="translate(621.291 352.516)"/><circle class="b" cx="2.708" cy="2.708" r="2.708" transform="translate(632.991 352.516)"/><circle class="b" cx="2.708" cy="2.708" r="2.708" transform="translate(644.691 352.516)"/><circle class="b" cx="2.708" cy="2.708" r="2.708" transform="translate(656.499 352.516)"/><circle class="b" cx="2.708" cy="2.708" r="2.708" transform="translate(668.199 352.516)"/><circle class="b" cx="2.708" cy="2.708" r="2.708" transform="translate(679.899 352.516)"/><circle class="b" cx="2.708" cy="2.708" r="2.708" transform="translate(187.525 364.216)"/><circle class="b" cx="2.708" cy="2.708" r="2.708" transform="translate(199.333 364.216)"/><circle class="b" cx="2.708" cy="2.708" r="2.708" transform="translate(211.033 364.216)"/><circle class="b" cx="2.708" cy="2.708" r="2.708" transform="translate(222.733 364.216)"/><circle class="b" cx="2.708" cy="2.708" r="2.708" transform="translate(234.433 364.216)"/><circle class="b" cx="2.708" cy="2.708" r="2.708" transform="translate(386.858 364.216)"/><circle class="b" cx="2.708" cy="2.708" r="2.708" transform="translate(398.558 364.216)"/><circle class="b" cx="2.708" cy="2.708" r="2.708" transform="translate(410.258 364.216)"/><circle class="b" cx="2.708" cy="2.708" r="2.708" transform="translate(609.591 364.216)"/><circle class="b" cx="2.708" cy="2.708" r="2.708" transform="translate(621.291 364.216)"/><circle class="b" cx="2.708" cy="2.708" r="2.708" transform="translate(632.991 364.216)"/><circle class="b" cx="2.708" cy="2.708" r="2.708" transform="translate(644.691 364.216)"/><circle class="b" cx="2.708" cy="2.708" r="2.708" transform="translate(656.499 364.216)"/><circle class="b" cx="2.708" cy="2.708" r="2.708" transform="translate(668.199 364.216)"/><circle class="b" cx="2.708" cy="2.708" r="2.708" transform="translate(679.899 364.216)"/><circle class="b" cx="2.708" cy="2.708" r="2.708" transform="translate(187.525 376.024)"/><circle class="b" cx="2.708" cy="2.708" r="2.708" transform="translate(199.333 376.024)"/><circle class="b" cx="2.708" cy="2.708" r="2.708" transform="translate(211.033 376.024)"/><circle class="b" cx="2.708" cy="2.708" r="2.708" transform="translate(222.733 376.024)"/><circle class="b" cx="2.708" cy="2.708" r="2.708" transform="translate(386.858 376.024)"/><circle class="b" cx="2.708" cy="2.708" r="2.708" transform="translate(398.558 376.024)"/><circle class="b" cx="2.708" cy="2.708" r="2.708" transform="translate(609.591 376.024)"/><circle class="b" cx="2.708" cy="2.708" r="2.708" transform="translate(644.691 376.024)"/><circle class="b" cx="2.708" cy="2.708" r="2.708" transform="translate(656.499 376.024)"/><circle class="b" cx="2.708" cy="2.708" r="2.708" transform="translate(668.199 376.024)"/><circle class="b" cx="2.708" cy="2.708" r="2.708" transform="translate(679.899 376.024)"/><circle class="b" cx="2.708" cy="2.708" r="2.708" transform="translate(738.507 376.024)"/><circle class="b" cx="2.708" cy="2.708" r="2.708" transform="translate(187.525 387.724)"/><circle class="b" cx="2.708" cy="2.708" r="2.708" transform="translate(199.333 387.724)"/><circle class="b" cx="2.708" cy="2.708" r="2.708" transform="translate(211.033 387.724)"/><circle class="b" cx="2.708" cy="2.708" r="2.708" transform="translate(656.499 387.724)"/><circle class="b" cx="2.708" cy="2.708" r="2.708" transform="translate(668.199 387.724)"/><circle class="b" cx="2.708" cy="2.708" r="2.708" transform="translate(738.507 387.724)"/><circle class="b" cx="2.708" cy="2.708" r="2.708" transform="translate(187.525 399.533)"/><circle class="b" cx="2.708" cy="2.708" r="2.708" transform="translate(199.333 399.533)"/><circle class="b" cx="2.708" cy="2.708" r="2.708" transform="translate(668.199 399.533)"/><circle class="b" cx="2.708" cy="2.708" r="2.708" transform="translate(715.107 399.533)"/><circle class="b" cx="2.708" cy="2.708" r="2.708" transform="translate(726.807 399.533)"/><circle class="b" cx="2.708" cy="2.708" r="2.708" transform="translate(187.525 411.233)"/><circle class="b" cx="2.708" cy="2.708" r="2.708" transform="translate(199.333 411.233)"/><path class="b" d="M608.5,379.6" transform="translate(50.707 31.633)"/><path class="b" d="M619.3,379.6" transform="translate(51.607 31.633)"/><circle class="b" cx="2.708" cy="2.708" r="2.708" transform="translate(703.407 411.233)"/><circle class="b" cx="2.708" cy="2.708" r="2.708" transform="translate(715.107 411.233)"/><circle class="b" cx="2.708" cy="2.708" r="2.708" transform="translate(187.525 423.041)"/><circle class="b" cx="2.708" cy="2.708" r="2.708" transform="translate(199.333 423.041)"/><circle class="b" cx="2.708" cy="2.708" r="2.708" transform="translate(225.333 423.041)"/><path class="b" d="M662.6,390.5" transform="translate(55.216 32.541)"/><path class="b" d="M673.4,390.5" transform="translate(56.116 32.541)"/><circle class="b" cx="2.708" cy="2.708" r="2.708" transform="translate(199.333 434.741)"/><circle class="b" cx="2.708" cy="2.708" r="2.708" transform="translate(211.033 446.549)"/></g></g></svg>